<?xml version="1.0" encoding="utf-8"?>
<!-- Generator: Adobe Illustrator 16.0.0, SVG Export Plug-In . SVG Version: 6.00 Build 0)  -->
<!DOCTYPE svg PUBLIC "-//W3C//DTD SVG 1.1//EN" "http://www.w3.org/Graphics/SVG/1.1/DTD/svg11.dtd">
<svg version="1.1" id="Layer_1" xmlns="http://www.w3.org/2000/svg" xmlns:xlink="http://www.w3.org/1999/xlink" x="0px" y="0px"
	 width="550.628px" height="551.904px" viewBox="722.049 112.527 550.628 551.904"
	 enable-background="new 722.049 112.527 550.628 551.904" xml:space="preserve">
<g>
	<g>
		<path id="path3551" fill="#646464" fill-opacity="0.215" stroke="#54514F" stroke-width="1.259" stroke-opacity="0.2" d="
			M1134.357,661.918c-31.576,18.484-123.921-105.208-160.261-109.216c-36.344-4.012-151.141,96.821-178.37,71.847
			c-27.229-24.973,59.228-151.788,51.513-188.188c-7.715-36.396-138.14-117-123.4-150.92
			c14.748-33.917,160.521,11.398,192.101-7.085c31.575-18.483,65.761-169.14,102.101-165.12
			c36.343,4.011,39.978,158.84,67.208,183.81c27.23,24.973,178.781,12.473,186.5,48.869c7.715,36.396-135.809,86.77-150.559,120.69
			c-14.748,33.918,44.734,176.837,13.158,195.327L1134.357,661.918z"/>
		<path id="path1061" fill="#F26726" stroke="#000084" stroke-width="1.259" d="M1128.607,642.939
			c-30.252,17.33-118.722-98.646-153.54-102.408c-34.82-3.761-144.801,90.781-170.881,67.367
			c-26.088-23.416,56.743-142.319,49.352-176.449c-7.393-34.126-132.351-109.7-118.221-141.51
			c14.128-31.801,153.78,10.687,184.04-6.644c30.251-17.33,63.001-158.58,97.819-154.82c34.819,3.761,38.302,148.93,64.39,172.34
			c26.088,23.415,171.279,11.694,178.68,45.82c7.393,34.126-130.109,81.355-144.24,113.16
			c-14.127,31.802,42.859,165.808,12.607,183.138L1128.607,642.939z"/>
	</g>
	<path id="path1685" fill="#FFFFFF" fill-opacity="0.694" d="M1013.407,138.011c-31.189-3.369-66.359,142.52-93.457,158.04
		c-27.096,15.523-161.84-30.266-174.49-1.781c-12.654,28.485,108.91,103.94,115.53,134.51
		c6.62,30.566-69.473,146.759-46.106,167.728c2.727,2.447-22.504,1.434,5.264,1.313c-20.121-50.089,53.947-134.939,47.844-163.119
		c-6.621-30.567-124.36-107.96-111.711-136.44c12.656-28.485,139.711,19.292,166.801,3.769
		c26.496-15.179,55.104-143.95,85.521-146.16c-3.67-5.743,9.645-17.33,4.805-17.853V138.011z M1084.525,313.781
		c1.029,1.473,2.078,2.883,3.193,3.885c18.752,16.832,106.08,13.463,143.32,27.248c-14.984-22.592-109.311-18.601-146.51-31.132
		L1084.525,313.781z M994.135,539.621c27.957,21.039,65.612,61.594,91.907,75.408
		C1055.908,592.836,1017.922,551.569,994.135,539.621L994.135,539.621z"/>
</g>
<g>
	<ellipse id="svg_1" fill="#6685D1" stroke="#000084" stroke-width="1.259" cx="1023.362" cy="468.488" rx="0" ry="0"/>
	<ellipse id="svg_2" fill="#6685D1" stroke="#000084" stroke-width="1.259" cx="997.362" cy="478.489" rx="0" ry="3"/>
</g>
</svg>
