<?xml version="1.0" encoding="utf-8"?>
<!-- Generator: Adobe Illustrator 16.0.0, SVG Export Plug-In . SVG Version: 6.00 Build 0)  -->
<!DOCTYPE svg PUBLIC "-//W3C//DTD SVG 1.1//EN" "http://www.w3.org/Graphics/SVG/1.1/DTD/svg11.dtd">
<svg version="1.1" id="Layer_1" xmlns="http://www.w3.org/2000/svg" xmlns:xlink="http://www.w3.org/1999/xlink" x="0px" y="0px"
	 width="281.808px" height="269.3px" viewBox="0 0 281.808 269.3" enable-background="new 0 0 281.808 269.3" xml:space="preserve">
<g>
	<path fill-rule="evenodd" clip-rule="evenodd" fill="#FEFEFE" d="M60.435,94.899c-2.179,0.342-4.358,0.684-6.537,1.026
		c-2.294,0.371-4.589,0.742-6.883,1.112c-2.935,0.478-5.87,0.956-8.805,1.434c-0.508,0.114-1.011,0.26-1.524,0.336
		c-2.542,0.375-5.085,0.731-7.628,1.094c-0.889,0.151-1.777,0.303-2.666,0.455c-0.111,0.021-0.223,0.043-0.334,0.065
		c-0.959,0.145-1.919,0.288-2.879,0.432c-2.504,0.411-5.009,0.821-7.513,1.231c-0.462,0.105-0.919,0.242-1.386,0.308
		c-4.647,0.666-9.295,1.319-13.944,1.977c-0.112,0.214-0.224,0.43-0.336,0.645c0.46,0.28,0.986,0.49,1.37,0.851
		c7.095,6.679,14.167,13.382,21.258,20.067c4.971,4.687,9.963,9.352,14.946,14.026c6.111,5.778,12.222,11.557,18.333,17.335
		c4.848,4.575,9.697,9.152,14.545,13.728c0.36,0.547,0.72,1.095,1.081,1.642c-0.313,1.963-0.625,3.925-0.937,5.888
		c-0.544,3.486-1.089,6.972-1.633,10.458c-0.105,0.477-0.238,0.95-0.313,1.432c-3.694,23.642-7.385,47.284-11.072,70.926
		c-0.398,2.552-0.768,5.108-1.192,7.934c0.72-0.347,1.157-0.536,1.574-0.762c4.731-2.571,9.464-5.138,14.186-7.727
		c9.833-5.391,19.661-10.794,29.491-16.192c1.843-1.003,3.686-2.006,5.528-3.009c2.068-1.12,4.137-2.24,6.205-3.36
		c2.178-1.188,4.356-2.377,6.535-3.565c2.105-1.156,4.211-2.313,6.316-3.47c1.82-0.993,3.64-1.987,5.46-2.98
		c1.982-1.082,3.963-2.165,5.945-3.246c1.091-0.559,2.234-1.039,3.261-1.699c1.167-0.751,2.278-1.097,3.527-0.274
		c3.898,1.972,7.797,3.943,11.696,5.915c3.612,1.859,7.224,3.719,10.836,5.578c5.449,2.725,10.898,5.45,16.347,8.174
		c2.619,1.376,5.238,2.751,7.857,4.127c4.026,1.99,8.052,3.98,12.078,5.971c2.947,1.504,5.895,3.008,8.842,4.512
		c4.349,2.198,8.698,4.397,13.046,6.596c1.664,0.883,3.328,1.767,5.417,2.875c-0.326-1.866-0.553-3.283-0.823-4.692
		c-0.868-4.532-1.752-9.061-2.63-13.591c-0.316-1.457-0.672-2.907-0.94-4.373c-1.048-5.742-2.069-11.489-3.1-17.235
		c-0.379-1.827-0.785-3.649-1.131-5.482c-0.74-3.925-1.448-7.856-2.169-11.785c-0.52-2.812-1.016-5.628-1.566-8.435
		c-0.352-1.791-0.783-3.565-1.179-5.347c-0.931-5.32-1.862-10.64-2.793-15.959c-0.301-1.614-0.732-3.215-0.871-4.842
		c-0.202-2.385-1.797-5.025,1.006-6.993c2.156-2.164,4.313-4.327,6.469-6.491c1.599-1.61,3.198-3.22,4.797-4.83
		c1.273-1.281,2.545-2.563,3.818-3.844c1.348-1.313,2.712-2.608,4.04-3.94c15.72-15.782,31.434-31.57,47.146-47.359
		c0.365-0.367,0.693-0.77,1.201-1.339c-4.613-0.602-8.964-1.171-13.316-1.736c-14.681-1.907-29.36-3.82-44.043-5.715
		c-11.224-1.449-22.452-2.872-33.677-4.307c-1.776-0.254-3.566-0.439-5.32-0.8c-0.589-0.121-1.327-0.563-1.591-1.068
		c-6.539-12.529-13.035-25.081-19.509-37.644c-1.623-3.15-3.109-6.37-4.721-9.526c-6.488-12.701-13-25.391-19.507-38.081
		c-0.2-0.391-0.46-0.751-0.829-1.347c-1.745,3.813-3.368,7.361-4.992,10.91c-0.461,0.972-0.923,1.943-1.384,2.916
		c-0.572,1.187-1.144,2.374-1.715,3.56c-1.142,2.417-2.283,4.834-3.425,7.251c-1.337,2.823-2.675,5.646-4.013,8.468
		c-1.085,2.289-2.17,4.578-3.256,6.866c-0.869,1.833-1.738,3.665-2.607,5.497c-0.981,2.068-1.963,4.136-2.944,6.204
		c-1.306,2.747-2.61,5.493-3.916,8.239c-1.544,3.258-3.089,6.517-4.634,9.775c-1.609,3.388-3.218,6.776-4.827,10.165
		c-0.885,1.792-1.915,3.529-2.619,5.391c-0.947,2.501-2.304,4.304-5.229,4.316c-2.385,0.369-4.77,0.738-7.154,1.107
		c-2.181,0.345-4.361,0.69-6.542,1.035c-2.396,0.402-4.793,0.804-7.189,1.206c-2.067,0.334-4.134,0.669-6.202,1.003
		C64.575,94.238,62.505,94.569,60.435,94.899z"/>
	<path fill-rule="evenodd" clip-rule="evenodd" fill="#AA8801" d="M190.771,88.467c11.226,1.435,22.453,2.858,33.677,4.307
		c14.683,1.895,29.362,3.809,44.043,5.715c4.352,0.565,8.704,1.135,13.316,1.736c-0.508,0.569-0.835,0.972-1.201,1.339
		c-15.712,15.789-31.427,31.577-47.146,47.359c-1.327,1.333-2.692,2.628-4.04,3.94c-0.081-0.475-0.031-1.03-0.263-1.413
		c-2.524-4.165-5.092-8.302-7.648-12.447c0.263-0.409,0.465-0.877,0.798-1.216c2.046-2.082,4.125-4.132,6.188-6.196
		c6.182-6.182,12.362-12.365,18.541-18.55c0.399-0.399,0.778-0.82,1.305-1.377c-2.154-0.27-4.02-0.503-5.886-0.736
		c-1.74-0.122-3.481-0.243-5.222-0.364c-1.181-0.261-2.35-0.625-3.544-0.764c-3.719-0.433-7.447-0.782-11.172-1.163
		c-3.271-0.534-6.542-1.067-9.812-1.601c-3.484-0.442-6.967-0.883-10.45-1.325c-0.87-0.121-1.738-0.242-2.607-0.364
		c-0.212-0.755-0.277-1.597-0.661-2.251c-2.384-4.049-4.862-8.043-7.251-12.089C191.282,90.239,191.085,89.318,190.771,88.467z"/>
	<path fill-rule="evenodd" clip-rule="evenodd" fill="#AA8801" d="M101.636,244.619c-9.83,5.398-19.657,10.801-29.491,16.192
		c-4.722,2.588-9.455,5.156-14.186,7.727c-0.417,0.227-0.854,0.415-1.574,0.762c0.424-2.826,0.794-5.381,1.192-7.934
		c3.687-23.643,7.377-47.285,11.072-70.926c0.075-0.481,0.208-0.955,0.313-1.432c0.564,0.417,1.318,0.717,1.663,1.271
		c3.147,5.046,6.196,10.153,9.353,15.193c0.407,0.65,1.265,1.019,1.915,1.518c0.029,0.107,0.058,0.213,0.086,0.32
		c-0.558,3.776-1.116,7.552-1.674,11.328c-0.551,3.486-1.103,6.973-1.654,10.459c-0.644,3.657-1.288,7.315-2.007,11.398
		c1.325-0.77,2.203-1.28,3.082-1.79c4.461-2.424,8.922-4.849,13.383-7.272c0.321-0.095,0.643-0.189,0.964-0.284
		c0.133,0.089,0.318,0.148,0.393,0.272c1.615,2.717,3.271,5.413,4.801,8.177C100.161,241.214,100.853,242.941,101.636,244.619z"/>
	<path fill-rule="evenodd" clip-rule="evenodd" fill="#B2920F" d="M190.771,88.467c0.314,0.851,0.511,1.772,0.964,2.542
		c2.39,4.046,4.868,8.04,7.251,12.089c0.384,0.654,0.449,1.496,0.661,2.251c-1.744-0.213-3.488-0.425-5.232-0.638
		c-0.979-0.125-1.957-0.25-2.935-0.376c-0.411-0.991-0.709-2.049-1.254-2.96c-2.168-3.629-4.429-7.203-6.625-10.816
		c-6.954-11.442-13.894-22.893-20.842-34.339c-5.429-8.944-10.862-17.885-16.292-26.828c-3.489-5.746-6.957-11.504-10.494-17.22
		c-0.342-0.554-1.105-0.847-1.673-1.261c1.624-3.549,3.248-7.097,4.992-10.91c0.369,0.596,0.629,0.956,0.829,1.347
		c6.508,12.69,13.02,25.38,19.507,38.081c1.612,3.156,3.098,6.376,4.721,9.526c6.475,12.563,12.97,25.115,19.509,37.644
		c0.264,0.506,1.002,0.948,1.591,1.068C187.205,88.027,188.995,88.213,190.771,88.467z"/>
	<path fill-rule="evenodd" clip-rule="evenodd" fill="#BE9F20" d="M127.776,24.637c1.142-2.417,2.284-4.833,3.426-7.251
		c0.434,0.462,0.965,0.865,1.287,1.394c4.509,7.405,8.974,14.838,13.482,22.243c5.242,8.608,10.534,17.186,15.773,25.795
		c6.479,10.646,12.937,21.306,19.372,31.979c0.826,1.369,1.464,2.853,2.189,4.282c-0.653-0.005-1.307-0.009-1.959-0.014
		c-2.07-0.21-4.139-0.421-6.209-0.633c-0.479-0.419-1.079-0.76-1.414-1.273c-0.78-1.194-1.432-2.47-2.136-3.714
		c-0.537-0.972-1.073-1.944-1.61-2.916c-0.665-1.406-1.329-2.813-1.992-4.219c-0.855-1.644-1.71-3.288-2.565-4.932
		c-0.771-1.516-1.543-3.032-2.315-4.549c-1.214-2.397-2.429-4.795-3.643-7.192c-2.056-3.928-4.111-7.855-6.167-11.783
		c-1.313-2.518-2.625-5.035-3.937-7.552c-0.462-1.065-0.924-2.13-1.386-3.195c-0.938-1.757-1.877-3.514-2.816-5.271
		c-1.666-3.374-3.332-6.747-5.122-10.372c-0.846,1.544-1.487,2.715-2.129,3.885c-0.523-0.605-1.138-1.155-1.556-1.827
		c-2.454-3.952-4.846-7.943-7.306-11.892C128.778,25.202,128.206,24.963,127.776,24.637z"/>
	<path fill-rule="evenodd" clip-rule="evenodd" fill="#B2920F" d="M15.666,102.084c2.504-0.41,5.009-0.821,7.513-1.231
		c1.105,1.97,2.157,3.971,3.326,5.903c6.936,11.466,13.899,22.914,20.854,34.368c2.928,4.823,5.871,9.638,8.767,14.479
		c0.308,0.514,0.963,1.277-0.219,1.689c-6.111-5.778-12.222-11.557-18.333-17.335c-0.17-0.742-0.163-1.591-0.538-2.208
		c-6.211-10.25-12.482-20.463-18.706-30.706C17.357,105.442,16.55,103.74,15.666,102.084z"/>
	<path fill-rule="evenodd" clip-rule="evenodd" fill="#B79715" d="M55.906,157.293c1.182-0.412,0.527-1.176,0.219-1.689
		c-2.896-4.842-5.838-9.656-8.767-14.479c-6.955-11.454-13.917-22.902-20.854-34.368c-1.169-1.932-2.221-3.933-3.326-5.903
		c0.96-0.144,1.919-0.288,2.879-0.432c0.111-0.021,0.223-0.043,0.334-0.065c0.889-0.151,1.777-0.303,2.666-0.454
		c0.144,0.458,0.205,0.967,0.445,1.367c1.925,3.196,3.927,6.346,5.812,9.565c0.664,1.134,1.068,2.421,1.591,3.639
		c-0.909,0.159-1.817,0.317-2.87,0.501c0.973,1.101,1.731,2.084,2.616,2.936c2.126,2.046,4.313,4.031,6.475,6.041
		c0.151,0.447,0.23,0.937,0.466,1.334c1.991,3.36,4,6.71,6.022,10.052c6.489,10.719,13.003,21.423,19.456,32.164
		c0.64,1.066,0.929,2.342,1.381,3.521C65.603,166.445,60.754,161.868,55.906,157.293z"/>
	<path fill-rule="evenodd" clip-rule="evenodd" fill="#E8CD60" d="M227.079,248.479c0.878,4.53,1.762,9.06,2.63,13.591
		c0.27,1.41,0.497,2.827,0.823,4.692c-2.088-1.108-3.752-1.991-5.417-2.875c-0.234-0.536-0.411-1.104-0.71-1.6
		c-4.418-7.304-8.84-14.605-13.303-21.882c-0.535-0.872-1.312-1.594-1.977-2.386c-0.438-2.586-0.837-5.18-1.326-7.756
		c-0.606-3.194-1.287-6.374-1.936-9.56c-0.324-1.96-0.647-3.921-0.971-5.882c0.505,0.375,1.18,0.645,1.488,1.142
		c2.856,4.606,5.649,9.251,8.46,13.886c3.513,5.793,7.007,11.598,10.568,17.362C225.751,247.768,226.512,248.063,227.079,248.479z"
		/>
	<path fill-rule="evenodd" clip-rule="evenodd" fill="#BA9A1A" d="M183.306,103.08c-0.725-1.43-1.363-2.914-2.189-4.283
		c-6.436-10.673-12.894-21.333-19.372-31.979c-5.239-8.609-10.532-17.188-15.773-25.795c-4.509-7.405-8.973-14.837-13.482-22.243
		c-0.322-0.529-0.853-0.932-1.287-1.393c0.571-1.188,1.143-2.375,1.715-3.561c0.369,0.271,0.867,0.463,1.088,0.825
		c4.642,7.577,9.257,15.169,13.866,22.767c6.351,10.469,12.682,20.95,19.039,31.416c6.581,10.836,13.189,21.655,19.755,32.5
		c0.429,0.708,0.597,1.574,0.886,2.366l0.019,0.094C186.149,103.556,184.727,103.317,183.306,103.08z"/>
	<path fill-rule="evenodd" clip-rule="evenodd" fill="#E0C452" d="M227.079,248.479c-0.567-0.416-1.328-0.712-1.67-1.267
		c-3.561-5.764-7.055-11.569-10.568-17.362c-2.811-4.635-5.604-9.28-8.46-13.886c-0.308-0.497-0.983-0.767-1.488-1.142
		c-0.328-1.526-0.656-3.053-0.985-4.58c-0.659-3.702-1.318-7.404-1.978-11.106c-0.323-1.961-0.646-3.922-0.968-5.882
		c0.473,0.396,1.082,0.706,1.395,1.203c2.335,3.703,4.63,7.431,6.902,11.173c4.125,6.792,8.212,13.605,12.363,20.38
		c0.257,0.419,0.935,0.58,1.417,0.86c1.03,5.746,2.051,11.493,3.1,17.235C226.407,245.573,226.763,247.022,227.079,248.479z"/>
	<path fill-rule="evenodd" clip-rule="evenodd" fill="#AA8801" d="M15.666,102.084c0.884,1.656,1.691,3.358,2.664,4.959
		c6.224,10.242,12.495,20.456,18.706,30.706c0.375,0.618,0.367,1.467,0.538,2.208c-4.983-4.675-9.975-9.34-14.946-14.026
		c-7.09-6.685-14.163-13.388-21.258-20.067c-0.384-0.361-0.91-0.571-1.37-0.851c0.112-0.215,0.224-0.43,0.336-0.645
		c4.648-0.657,9.296-1.311,13.944-1.977C14.747,102.326,15.204,102.189,15.666,102.084z"/>
	<path fill-rule="evenodd" clip-rule="evenodd" fill="#B79715" d="M187.551,103.7c-0.29-0.792-0.458-1.658-0.886-2.366
		c-6.566-10.845-13.174-21.664-19.755-32.5c-6.356-10.466-12.688-20.947-19.039-31.416c-4.609-7.598-9.225-15.19-13.866-22.767
		c-0.221-0.362-0.719-0.554-1.088-0.825c0.461-0.972,0.923-1.944,1.384-2.916c0.568,0.414,1.331,0.707,1.673,1.261
		c3.537,5.716,7.005,11.474,10.494,17.22c5.43,8.943,10.863,17.884,16.292,26.828c6.948,11.446,13.888,22.897,20.842,34.339
		c2.196,3.613,4.458,7.187,6.625,10.816c0.544,0.912,0.843,1.97,1.254,2.961C190.171,104.124,188.861,103.912,187.551,103.7z"/>
	<path fill-rule="evenodd" clip-rule="evenodd" fill="#F1D76D" d="M183.292,242.684c-5.449-2.725-10.898-5.45-16.347-8.175
		c-0.161-0.562-0.206-1.192-0.498-1.674c-3.814-6.302-7.685-12.569-11.484-18.88c-0.707-1.173-1.161-2.499-1.731-3.754
		c0.983,0.455,1.966,0.908,2.95,1.363c2.614,1.308,5.228,2.616,7.842,3.924c1.852,0.977,3.704,1.954,5.557,2.93
		c0.295,0.697,0.512,1.44,0.898,2.082c3.13,5.207,6.336,10.367,9.423,15.599C181.156,238.22,182.17,240.484,183.292,242.684z"/>
	<path fill-rule="evenodd" clip-rule="evenodd" fill="#DABD49" d="M223.039,226.871c-0.482-0.281-1.16-0.441-1.417-0.86
		c-4.151-6.774-8.239-13.588-12.363-20.38c-2.272-3.742-4.567-7.47-6.902-11.173c-0.313-0.497-0.922-0.806-1.395-1.203
		c-0.439-2.07-0.878-4.14-1.317-6.21c-0.646-3.593-1.292-7.186-1.937-10.778c0.438,0.24,1.056,0.369,1.288,0.739
		c2.473,3.956,4.892,7.944,7.312,11.932c3.855,6.354,7.68,12.726,11.578,19.053c0.41,0.666,1.226,1.081,1.854,1.613
		c0.721,3.928,1.429,7.859,2.169,11.785C222.254,223.222,222.66,225.044,223.039,226.871z"/>
	<path fill-rule="evenodd" clip-rule="evenodd" fill="#BA9A1A" d="M70.451,171.021c-0.452-1.179-0.741-2.455-1.381-3.521
		c-6.453-10.741-12.967-21.445-19.456-32.164c-2.023-3.341-4.032-6.691-6.022-10.052c-0.236-0.397-0.314-0.887-0.466-1.334
		c0.537,0.451,1.075,0.901,1.613,1.351c2.599,2.399,5.199,4.798,7.798,7.197c0.016,0.107,0.032,0.214,0.05,0.32
		c0.253,0.815,0.376,1.705,0.786,2.432c1.144,2.029,2.412,3.989,3.621,5.981c8.016,13.208,16.013,26.427,24.062,39.615
		c1.172,1.922,2.585,3.698,3.887,5.542c-0.212,1.527-0.425,3.054-0.637,4.581c-0.589-0.508-1.345-0.909-1.74-1.538
		c-2.705-4.299-5.292-8.672-8.01-12.961c-0.862-1.361-2.008-2.543-3.024-3.807C71.171,172.116,70.812,171.568,70.451,171.021z"/>
	<path fill-rule="evenodd" clip-rule="evenodd" fill="#FEE379" d="M93.731,89.556c2.925-0.011,4.282-1.814,5.229-4.315
		c0.705-1.861,1.734-3.599,2.619-5.391c0.696,0.833,1.497,1.599,2.071,2.509c2.624,4.155,5.184,8.351,7.767,12.532
		c-0.946,2.118-2.051,4.184-2.778,6.375c-0.459,1.384-1.283,1.88-2.518,2.076c-0.956,0.151-1.918,0.254-2.878,0.378
		c-0.435,0.104-0.869,0.21-1.304,0.315c-1.433-2.469-2.884-4.927-4.292-7.41C96.319,94.283,95.035,91.914,93.731,89.556z"/>
	<path fill-rule="evenodd" clip-rule="evenodd" fill="#F1D76D" d="M209.126,238.021c0.665,0.792,1.442,1.515,1.977,2.386
		c4.462,7.277,8.884,14.579,13.303,21.882c0.3,0.495,0.477,1.064,0.71,1.6c-4.349-2.199-8.697-4.397-13.046-6.596
		c-0.251-0.706-0.391-1.479-0.771-2.107c-3.505-5.793-7.079-11.544-10.569-17.346c-0.908-1.509-1.595-3.15-2.384-4.731
		c2.593,1.246,5.177,2.511,7.784,3.727C207.102,237.289,208.126,237.629,209.126,238.021z"/>
	<path fill-rule="evenodd" clip-rule="evenodd" fill="#FEE379" d="M203.228,252.781c-4.026-1.99-8.052-3.981-12.078-5.971
		c-0.409-0.989-0.701-2.047-1.245-2.955c-3.972-6.635-8.001-13.234-11.977-19.866c-0.209-0.349-0.091-0.895-0.125-1.349
		c1.291,0.557,2.58,1.113,3.871,1.669c2.612,1.314,5.224,2.627,7.835,3.941c-0.001,0.097,0.003,0.194,0.011,0.29
		c0.316,0.85,0.51,1.773,0.968,2.539c3.103,5.185,6.291,10.319,9.388,15.508C201.077,248.602,202.115,250.713,203.228,252.781z"/>
	<path fill-rule="evenodd" clip-rule="evenodd" fill="#D3B63F" d="M219.739,209.604c-0.627-0.532-1.444-0.947-1.854-1.613
		c-3.898-6.327-7.723-12.699-11.578-19.053c-2.42-3.988-4.839-7.977-7.312-11.932c-0.232-0.37-0.85-0.499-1.289-0.739
		c-0.217-0.767-0.435-1.534-0.652-2.301c-0.405-2.547-0.87-5.087-1.177-7.646c-0.083-0.688,0.315-1.434,0.493-2.153
		c0.335,0.234,0.791,0.393,0.986,0.711c3.121,5.083,6.208,10.186,9.304,15.283c3.096,5.098,6.184,10.201,9.313,15.278
		c0.15,0.244,0.671,0.26,1.019,0.382c0.396,1.782,0.828,3.557,1.179,5.347C218.724,203.976,219.22,206.792,219.739,209.604z"/>
	<path fill-rule="evenodd" clip-rule="evenodd" fill="#CEB038" d="M216.994,195.822c-0.348-0.122-0.869-0.138-1.019-0.382
		c-3.129-5.077-6.216-10.18-9.313-15.278c-3.096-5.098-6.183-10.2-9.304-15.283c-0.195-0.318-0.651-0.478-0.986-0.711
		c1.416-1.416,2.832-2.833,4.247-4.249c0.597,0.644,1.316,1.212,1.77,1.944c3.418,5.527,6.766,11.097,10.191,16.62
		c0.356,0.574,1.072,0.925,1.621,1.38C215.131,185.183,216.063,190.502,216.994,195.822z"/>
	<path fill-rule="evenodd" clip-rule="evenodd" fill="#E8CD60" d="M153.233,210.2c0.57,1.255,1.024,2.581,1.731,3.754
		c3.799,6.311,7.67,12.579,11.484,18.88c0.292,0.481,0.337,1.112,0.498,1.674c-3.612-1.859-7.225-3.718-10.836-5.578
		c-0.186-0.763-0.199-1.627-0.583-2.271c-3.111-5.213-6.321-10.368-9.438-15.578c-1.184-1.979-2.204-4.056-3.299-6.087
		c0.653,0.224,1.307,0.447,1.96,0.671C147.577,207.176,150.405,208.688,153.233,210.2z"/>
	<path fill-rule="evenodd" clip-rule="evenodd" fill="#F1D76D" d="M111.418,94.892c-2.583-4.181-5.144-8.377-7.767-12.532
		c-0.575-0.91-1.375-1.677-2.071-2.509c1.609-3.389,3.218-6.777,4.828-10.165c0.391,0.432,0.856,0.817,1.16,1.303
		c1.374,2.201,2.666,4.453,4.056,6.642c1.526,2.402,3.127,4.756,4.695,7.131c-0.221,0.55-0.424,1.108-0.665,1.649
		c-0.97,2.176-1.952,4.347-2.93,6.52C112.288,93.584,111.853,94.238,111.418,94.892z"/>
	<path fill-rule="evenodd" clip-rule="evenodd" fill="#E8CD60" d="M116.318,84.762c-1.568-2.375-3.169-4.729-4.695-7.131
		c-1.39-2.189-2.682-4.441-4.056-6.642c-0.304-0.486-0.769-0.872-1.16-1.303c1.543-3.258,3.088-6.517,4.633-9.775
		c0.256,0.168,0.606,0.278,0.753,0.514c1.056,1.698,2.039,3.44,3.103,5.134c1.979,3.149,3.996,6.274,5.997,9.41
		c-0.103,0.415-0.135,0.865-0.319,1.241C119.172,79.068,117.74,81.913,116.318,84.762z"/>
	<path fill-rule="evenodd" clip-rule="evenodd" fill="#E0C452" d="M142.789,204.994c1.095,2.031,2.115,4.108,3.299,6.087
		c3.117,5.21,6.327,10.365,9.438,15.578c0.384,0.645,0.398,1.509,0.583,2.271c-3.899-1.972-7.798-3.943-11.696-5.915
		c-0.314-0.855-0.501-1.788-0.964-2.553c-2.47-4.082-5.01-8.121-7.525-12.176c2.058-1.144,4.111-2.296,6.184-3.413
		C142.267,204.788,142.559,204.948,142.789,204.994z"/>
	<path fill-rule="evenodd" clip-rule="evenodd" fill="#B2920F" d="M81.892,206.99c-0.649-0.499-1.507-0.867-1.914-1.518
		c-3.157-5.04-6.206-10.147-9.353-15.193c-0.345-0.554-1.099-0.853-1.663-1.271c0.544-3.486,1.089-6.972,1.633-10.458
		c0.528,0.423,1.226,0.744,1.56,1.287c2.993,4.884,5.888,9.83,8.902,14.701c0.558,0.902,1.525,1.552,2.303,2.319
		c-0.117,1.195-0.235,2.391-0.352,3.586C82.635,202.626,82.263,204.808,81.892,206.99z"/>
	<path fill-rule="evenodd" clip-rule="evenodd" fill="#F8DE76" d="M203.228,252.781c-1.113-2.067-2.15-4.179-3.353-6.194
		c-3.097-5.188-6.285-10.323-9.388-15.508c-0.458-0.766-0.652-1.689-0.968-2.539c0.732,0.318,1.47,0.623,2.196,0.956
		c1.442,0.662,2.878,1.339,4.316,2.011c0.771,0.534,1.543,1.068,2.315,1.602c0.789,1.581,1.476,3.223,2.384,4.731
		c3.49,5.801,7.063,11.553,10.569,17.346c0.38,0.628,0.52,1.401,0.771,2.107C209.123,255.789,206.175,254.285,203.228,252.781z"/>
	<path fill-rule="evenodd" clip-rule="evenodd" fill="#C7A92E" d="M127.776,24.637c0.43,0.327,1.002,0.565,1.269,0.994
		c2.46,3.948,4.853,7.939,7.306,11.892c0.417,0.672,1.032,1.221,1.556,1.827c-1.415,2.942-2.829,5.884-4.243,8.825
		c-0.461-0.515-1.013-0.975-1.369-1.555c-2.374-3.866-4.693-7.766-7.063-11.635c-0.412-0.674-0.975-1.255-1.469-1.879
		C125.101,30.282,126.438,27.459,127.776,24.637z"/>
	<path fill-rule="evenodd" clip-rule="evenodd" fill="#BE9F20" d="M36.905,114.471c-0.523-1.217-0.927-2.504-1.591-3.638
		c-1.885-3.219-3.886-6.369-5.812-9.565c-0.241-0.4-0.301-0.908-0.445-1.367c2.543-0.362,5.087-0.719,7.628-1.094
		c0.513-0.076,1.016-0.222,1.524-0.336c1.751,2.9,3.547,5.774,5.237,8.709c1.062,1.845,1.963,3.782,2.937,5.677
		C43.224,113.396,40.064,113.934,36.905,114.471z"/>
	<path fill-rule="evenodd" clip-rule="evenodd" fill="#C7A92E" d="M46.383,112.858c-0.974-1.896-1.875-3.833-2.937-5.677
		c-1.69-2.935-3.486-5.809-5.237-8.709c2.935-0.478,5.87-0.956,8.805-1.434c0.134,0.407,0.198,0.855,0.413,1.212
		c2.251,3.734,4.548,7.442,6.775,11.191c0.365,0.615,0.456,1.392,0.674,2.094C52.045,111.976,49.214,112.417,46.383,112.858z"/>
	<path fill-rule="evenodd" clip-rule="evenodd" fill="#E0C452" d="M120.894,74.968c-2.001-3.135-4.019-6.26-5.997-9.41
		c-1.064-1.693-2.047-3.436-3.103-5.134c-0.147-0.236-0.497-0.346-0.753-0.514c1.305-2.746,2.61-5.492,3.916-8.238
		c3.18,5.156,6.36,10.313,9.541,15.468c-0.443,1.297-0.885,2.594-1.328,3.891C122.41,72.344,121.652,73.656,120.894,74.968z"/>
	<path fill-rule="evenodd" clip-rule="evenodd" fill="#F8DE76" d="M177.803,222.64c0.034,0.454-0.084,1,0.125,1.349
		c3.976,6.632,8.005,13.231,11.977,19.866c0.543,0.908,0.836,1.966,1.245,2.955c-2.619-1.376-5.238-2.751-7.857-4.127
		c-1.123-2.199-2.136-4.463-3.389-6.586c-3.087-5.232-6.293-10.393-9.423-15.599c-0.386-0.642-0.603-1.385-0.898-2.082
		c1.078,0.461,2.156,0.922,3.234,1.384C174.479,220.747,176.141,221.693,177.803,222.64z"/>
	<path fill-rule="evenodd" clip-rule="evenodd" fill="#C7A92E" d="M214.2,179.863c-0.549-0.455-1.265-0.806-1.621-1.38
		c-3.425-5.522-6.773-11.092-10.191-16.62c-0.453-0.732-1.173-1.3-1.77-1.944c1.854-1.854,3.708-3.708,5.562-5.563
		c0.273,0.641,0.47,1.328,0.831,1.915c2.422,3.931,4.879,7.841,7.325,11.757c-2.803,1.967-1.208,4.608-1.006,6.993
		C213.468,176.647,213.899,178.249,214.2,179.863z"/>
	<path fill-rule="evenodd" clip-rule="evenodd" fill="#BE9F20" d="M214.336,168.028c-2.446-3.917-4.903-7.826-7.325-11.757
		c-0.36-0.586-0.558-1.274-0.831-1.915c1.96-1.961,3.92-3.922,5.88-5.883c2.374,4.056,4.722,8.128,7.158,12.147
		c0.277,0.458,1.045,0.619,1.586,0.917C218.648,163.701,216.492,165.864,214.336,168.028z"/>
	<path fill-rule="evenodd" clip-rule="evenodd" fill="#CEB038" d="M123.763,33.105c0.494,0.624,1.057,1.206,1.469,1.879
		c2.37,3.869,4.689,7.769,7.063,11.635c0.356,0.58,0.908,1.04,1.369,1.555c-1.096,2.291-2.191,4.582-3.288,6.873
		c-0.332-0.344-0.739-0.641-0.984-1.038c-1.614-2.617-3.158-5.278-4.795-7.88c-1.312-2.085-2.723-4.107-4.089-6.157
		C121.592,37.683,122.678,35.394,123.763,33.105z"/>
	<path fill-rule="evenodd" clip-rule="evenodd" fill="#BE9F20" d="M119.904,234.685c-2.179,1.188-4.357,2.377-6.535,3.565
		c-0.187-0.557-0.284-1.166-0.573-1.662c-1.171-2.007-2.382-3.993-3.617-5.962c-1.198-1.911-2.443-3.792-3.667-5.686
		c0.989-0.646,1.978-1.292,2.966-1.938c1.195-0.549,2.389-1.099,3.584-1.648c1.729,2.797,3.491,5.574,5.174,8.397
		C118.193,231.356,119.019,233.038,119.904,234.685z"/>
	<path fill-rule="evenodd" clip-rule="evenodd" fill="#DABD49" d="M135.923,208.287c2.515,4.055,5.055,8.094,7.525,12.176
		c0.463,0.765,0.65,1.698,0.964,2.553c-1.249-0.822-2.359-0.477-3.527,0.274c-1.026,0.66-2.169,1.14-3.261,1.699
		c-1.5-2.542-3.03-5.067-4.487-7.634c-1.084-1.91-2.072-3.873-3.103-5.813C131.998,210.457,133.96,209.372,135.923,208.287z"/>
	<path fill-rule="evenodd" clip-rule="evenodd" fill="#B79715" d="M220.805,161.537c-0.541-0.298-1.309-0.459-1.586-0.917
		c-2.436-4.019-4.784-8.091-7.158-12.146c1.628-1.632,3.257-3.263,4.886-4.895c2.342,3.897,4.662,7.81,7.053,11.677
		c0.364,0.589,1.06,0.973,1.603,1.452C224.003,158.317,222.404,159.927,220.805,161.537z"/>
	<path fill-rule="evenodd" clip-rule="evenodd" fill="#CEB038" d="M54.876,111.535c-0.218-0.702-0.309-1.479-0.674-2.094
		c-2.227-3.749-4.523-7.457-6.775-11.191c-0.215-0.357-0.279-0.806-0.413-1.212c2.294-0.371,4.589-0.742,6.883-1.113
		c1.658,2.789,3.346,5.56,4.962,8.374c1.122,1.954,2.143,3.965,3.209,5.952c-2.178,0.436-4.356,0.872-6.534,1.307
		C55.316,111.55,55.096,111.542,54.876,111.535z"/>
	<path fill-rule="evenodd" clip-rule="evenodd" fill="#C7A92E" d="M119.904,234.685c-0.885-1.647-1.711-3.328-2.668-4.933
		c-1.683-2.824-3.445-5.601-5.174-8.397c2.181-1.197,4.362-2.395,6.542-3.592c0.159,0.444,0.251,0.927,0.485,1.328
		c2.364,4.049,4.75,8.085,7.13,12.125C124.115,232.372,122.01,233.528,119.904,234.685z"/>
	<path fill-rule="evenodd" clip-rule="evenodd" fill="#F1D76D" d="M80.036,91.699c2.181-0.345,4.361-0.69,6.542-1.035
		c0.883,1.478,1.773,2.951,2.65,4.434c1.954,3.303,3.902,6.61,5.853,9.916c-0.111,0.109-0.222,0.219-0.333,0.328
		c-2.285,0.223-4.57,0.445-6.855,0.667c-0.196-0.497-0.328-1.033-0.599-1.485c-1.962-3.272-3.981-6.511-5.917-9.799
		C80.82,93.781,80.477,92.711,80.036,91.699z"/>
	<path fill-rule="evenodd" clip-rule="evenodd" fill="#E8CD60" d="M80.036,91.699c0.441,1.012,0.784,2.082,1.34,3.026
		c1.936,3.288,3.955,6.526,5.917,9.799c0.271,0.452,0.402,0.988,0.599,1.485c-1.527,0.327-3.054,0.654-4.581,0.981
		c-0.762,0.105-1.525,0.21-2.288,0.315c-0.851-1.661-1.635-3.361-2.566-4.976c-1.827-3.167-3.735-6.286-5.61-9.425
		C75.243,92.503,77.639,92.101,80.036,91.699z"/>
	<path fill-rule="evenodd" clip-rule="evenodd" fill="#F8DE76" d="M95.08,105.013c-1.951-3.305-3.898-6.613-5.853-9.916
		c-0.877-1.482-1.767-2.956-2.65-4.434c2.385-0.369,4.769-0.738,7.154-1.107c1.304,2.357,2.587,4.726,3.917,7.069
		c1.408,2.483,2.859,4.941,4.292,7.41C99.653,104.361,97.367,104.688,95.08,105.013z"/>
	<path fill-rule="evenodd" clip-rule="evenodd" fill="#B79715" d="M105.512,224.94c1.225,1.894,2.47,3.775,3.667,5.686
		c1.235,1.969,2.445,3.955,3.617,5.962c0.29,0.496,0.387,1.105,0.573,1.662c-2.068,1.12-4.137,2.24-6.205,3.36
		c-0.151-0.617-0.166-1.316-0.477-1.838c-2.317-3.891-4.693-7.746-7.051-11.611C101.595,227.087,103.553,226.014,105.512,224.94z"/>
	<path fill-rule="evenodd" clip-rule="evenodd" fill="#DABD49" d="M124.496,67.141c-3.18-5.156-6.36-10.313-9.541-15.469
		c0.981-2.068,1.963-4.136,2.944-6.204c1.2,2.061,2.354,4.151,3.611,6.177c1.939,3.123,3.95,6.201,5.93,9.297
		C126.459,63.008,125.478,65.074,124.496,67.141z"/>
	<path fill-rule="evenodd" clip-rule="evenodd" fill="#CEB038" d="M126.221,231.215c-2.38-4.039-4.767-8.075-7.13-12.125
		c-0.234-0.401-0.327-0.884-0.485-1.328c1.85-0.986,3.7-1.971,5.55-2.957c1.846,3.037,3.738,6.046,5.516,9.122
		c0.79,1.367,1.347,2.867,2.01,4.307C129.861,229.228,128.041,230.222,126.221,231.215z"/>
	<path fill-rule="evenodd" clip-rule="evenodd" fill="#D3B63F" d="M127.441,60.943c-1.98-3.097-3.991-6.175-5.93-9.298
		c-1.258-2.025-2.411-4.116-3.611-6.177c0.869-1.833,1.738-3.665,2.607-5.497c1.367,2.05,2.778,4.072,4.089,6.157
		c1.637,2.602,3.181,5.263,4.795,7.88c0.245,0.397,0.652,0.694,0.984,1.038C129.397,57.012,128.419,58.978,127.441,60.943z"/>
	<path fill-rule="evenodd" clip-rule="evenodd" fill="#B2920F" d="M225.603,156.708c-0.543-0.479-1.238-0.863-1.603-1.452
		c-2.391-3.867-4.71-7.779-7.053-11.677c0.768-0.875,1.535-1.75,2.303-2.626c0.753-0.649,1.506-1.299,2.259-1.949
		c2.556,4.145,5.125,8.282,7.648,12.447c0.232,0.383,0.182,0.938,0.263,1.413C228.148,154.145,226.875,155.426,225.603,156.708z"/>
	<path fill-rule="evenodd" clip-rule="evenodd" fill="#E0C452" d="M72.846,92.904c1.875,3.139,3.783,6.258,5.61,9.425
		c0.932,1.615,1.715,3.314,2.566,4.976c-2.178,0.328-4.356,0.656-6.534,0.984c-0.152-0.618-0.178-1.308-0.479-1.842
		c-0.875-1.549-1.896-3.016-2.796-4.553c-1.549-2.646-3.048-5.323-4.568-7.987C68.712,93.573,70.779,93.239,72.846,92.904z"/>
	<path fill-rule="evenodd" clip-rule="evenodd" fill="#D3B63F" d="M62.07,110.25c-1.066-1.986-2.087-3.998-3.209-5.952
		c-1.616-2.813-3.305-5.584-4.962-8.374c2.179-0.342,4.358-0.684,6.537-1.026c0.189,0.489,0.313,1.019,0.578,1.462
		c2.249,3.759,4.538,7.494,6.774,11.261c0.284,0.478,0.332,1.097,0.49,1.65C66.208,109.599,64.139,109.924,62.07,110.25z"/>
	<path fill-rule="evenodd" clip-rule="evenodd" fill="#D3B63F" d="M131.681,228.235c-0.663-1.44-1.22-2.94-2.01-4.307
		c-1.777-3.076-3.67-6.085-5.516-9.122c1.749-1.081,3.497-2.161,5.246-3.242c0.211-0.007,0.422-0.015,0.634-0.023
		c1.031,1.94,2.019,3.904,3.103,5.813c1.457,2.567,2.988,5.092,4.487,7.634C135.644,226.07,133.663,227.153,131.681,228.235z"/>
	<path fill-rule="evenodd" clip-rule="evenodd" fill="#DABD49" d="M68.277,109.272c-0.158-0.553-0.206-1.172-0.49-1.65
		c-2.236-3.767-4.525-7.502-6.774-11.261c-0.265-0.443-0.389-0.973-0.578-1.462c2.07-0.331,4.14-0.661,6.209-0.992
		c1.52,2.664,3.02,5.34,4.568,7.987c0.899,1.537,1.921,3.004,2.796,4.553c0.302,0.534,0.328,1.224,0.479,1.842
		c-1.199,0.224-2.398,0.447-3.598,0.672C70.02,109.064,69.148,109.169,68.277,109.272z"/>
	<path fill-rule="evenodd" clip-rule="evenodd" fill="#B2920F" d="M99.636,228.16c2.358,3.866,4.734,7.721,7.051,11.612
		c0.311,0.522,0.325,1.221,0.477,1.838c-1.843,1.003-3.686,2.006-5.528,3.009c-0.783-1.678-1.475-3.405-2.369-5.021
		c-1.531-2.765-3.186-5.46-4.801-8.177c-0.074-0.125-0.259-0.183-0.393-0.272C95.928,230.152,97.782,229.156,99.636,228.16z"/>
	<path fill-rule="evenodd" clip-rule="evenodd" fill="#B79715" d="M83.36,196.857c-0.778-0.767-1.745-1.417-2.303-2.319
		c-3.015-4.871-5.909-9.816-8.902-14.701c-0.333-0.543-1.031-0.864-1.56-1.287c0.312-1.962,0.624-3.925,0.937-5.888
		c1.016,1.264,2.162,2.446,3.024,3.807c2.718,4.29,5.305,8.663,8.01,12.961c0.395,0.629,1.151,1.03,1.74,1.538
		c0.016,0.216,0.031,0.431,0.047,0.646C84.021,193.363,83.691,195.11,83.36,196.857z"/>
	<path fill-rule="evenodd" clip-rule="evenodd" fill="#BE9F20" d="M26.392,100.355c-0.111,0.022-0.223,0.044-0.334,0.065
		C26.169,100.399,26.281,100.377,26.392,100.355z"/>
	<path fill-rule="evenodd" clip-rule="evenodd" fill="#D6AC02" d="M153.233,210.2c-2.828-1.512-5.656-3.024-8.485-4.535
		c1.314-1.699,2.6-3.42,3.948-5.092c5.097-6.317,10.226-12.609,15.323-18.927c5.776-7.16,11.502-14.36,17.3-21.502
		c6.855-8.446,13.778-16.837,20.644-25.275c6.012-7.388,12.002-14.792,17.955-22.227c0.99-1.236,1.739-2.665,2.599-4.004
		c3.725,0.381,7.454,0.729,11.172,1.163c1.195,0.139,2.364,0.503,3.544,0.764c-1.572,1.86-3.18,3.691-4.71,5.584
		c-5.781,7.154-11.522,14.338-17.305,21.492c-5.646,6.985-11.327,13.942-16.985,20.917c-3.681,4.538-7.349,9.087-11.024,13.63
		c-2.791,3.449-5.58,6.9-8.376,10.345c-3.649,4.494-7.302,8.985-10.957,13.474c-3.041,3.735-6.14,7.424-9.106,11.218
		c-1.028,1.316-1.733,2.886-2.586,4.339C155.2,211.108,154.217,210.655,153.233,210.2z"/>
	<path fill-rule="evenodd" clip-rule="evenodd" fill="#E8BE15" d="M129.401,211.564c-1.749,1.081-3.497,2.161-5.246,3.242
		c-1.85,0.985-3.701,1.971-5.55,2.957c-2.181,1.198-4.362,2.395-6.542,3.592c-1.195,0.55-2.39,1.099-3.584,1.648
		c0.2-0.479,0.304-1.036,0.616-1.427c2.464-3.085,4.977-6.132,7.458-9.206c4.382-5.429,8.739-10.879,13.132-16.299
		c3.986-4.917,8.021-9.794,12.006-14.712c5.346-6.598,10.65-13.229,15.997-19.826c4.872-6.01,9.794-11.978,14.661-17.991
		c4.355-5.381,8.643-10.817,13-16.197c4.903-6.054,9.872-12.054,14.758-18.122c0.854-1.06,1.439-2.335,2.149-3.512
		c3.483,0.442,6.966,0.883,10.45,1.324c-0.174,0.434-0.263,0.935-0.538,1.291c-1.06,1.371-2.187,2.689-3.273,4.039
		c-4.345,5.398-8.667,10.814-13.029,16.197c-4.022,4.964-8.103,9.881-12.126,14.843c-4.398,5.424-8.748,10.888-13.145,16.313
		c-3.988,4.922-8.023,9.806-12.015,14.725c-4.947,6.094-9.867,12.21-14.806,18.311c-4.701,5.807-9.42,11.6-14.096,17.427
		C129.417,210.509,129.486,211.097,129.401,211.564z"/>
	<path fill-rule="evenodd" clip-rule="evenodd" fill="#DEB40B" d="M129.401,211.564c0.085-0.467,0.017-1.055,0.277-1.381
		c4.675-5.828,9.395-11.62,14.096-17.427c4.939-6.101,9.859-12.217,14.806-18.311c3.992-4.919,8.027-9.803,12.015-14.725
		c4.396-5.425,8.746-10.888,13.145-16.313c4.024-4.962,8.104-9.879,12.126-14.843c4.363-5.383,8.685-10.799,13.029-16.197
		c1.086-1.35,2.213-2.668,3.273-4.039c0.275-0.356,0.363-0.857,0.538-1.291c3.27,0.534,6.541,1.067,9.812,1.602
		c-0.86,1.339-1.609,2.768-2.599,4.004c-5.953,7.435-11.943,14.839-17.955,22.227c-6.866,8.438-13.789,16.829-20.644,25.275
		c-5.797,7.143-11.524,14.343-17.3,21.502c-5.097,6.317-10.226,12.61-15.323,18.927c-1.349,1.671-2.634,3.393-3.948,5.092
		c-0.653-0.224-1.307-0.447-1.96-0.671c-0.23-0.046-0.522-0.206-0.682-0.12c-2.072,1.117-4.125,2.27-6.184,3.413
		c-1.963,1.084-3.926,2.169-5.888,3.254C129.823,211.549,129.612,211.557,129.401,211.564z"/>
	<path fill-rule="evenodd" clip-rule="evenodd" fill="#F1C71D" d="M202.255,105.712c-0.71,1.176-1.296,2.452-2.149,3.512
		c-4.886,6.067-9.855,12.068-14.758,18.122c-4.357,5.38-8.644,10.816-13,16.197c-4.867,6.013-9.79,11.981-14.661,17.991
		c-5.347,6.596-10.651,13.228-15.997,19.826c-3.985,4.918-8.02,9.795-12.006,14.712c-4.393,5.42-8.75,10.871-13.132,16.299
		c-2.481,3.073-4.994,6.12-7.458,9.206c-0.312,0.391-0.416,0.947-0.616,1.427c-0.989,0.646-1.978,1.292-2.966,1.938
		c-1.958,1.073-3.917,2.147-5.875,3.22c-1.854,0.996-3.708,1.992-5.563,2.989c-0.322,0.094-0.643,0.189-0.964,0.284
		c0.272-0.741,0.377-1.613,0.842-2.202c2.886-3.65,5.864-7.228,8.791-10.846c4.492-5.552,8.958-11.125,13.454-16.674
		c3.884-4.793,7.804-9.556,11.689-14.348c4.055-5,8.078-10.027,12.132-15.029c3.919-4.834,7.872-9.641,11.788-14.478
		c4.425-5.466,8.813-10.963,13.24-16.428c4.394-5.424,8.826-10.818,13.224-16.239c4.022-4.958,8.04-9.919,12.019-14.912
		c1.439-1.806,2.756-3.708,4.129-5.567c1.744,0.213,3.488,0.425,5.232,0.638C200.517,105.47,201.386,105.591,202.255,105.712z"/>
	<path fill-rule="evenodd" clip-rule="evenodd" fill="#DDB30A" d="M156.184,211.563c0.853-1.454,1.558-3.023,2.586-4.339
		c2.966-3.794,6.065-7.483,9.106-11.218c3.655-4.489,7.308-8.98,10.957-13.474c2.796-3.445,5.586-6.896,8.376-10.345
		c3.676-4.542,7.343-9.092,11.024-13.63c5.659-6.975,11.34-13.933,16.985-20.917c5.782-7.153,11.524-14.338,17.305-21.492
		c1.53-1.894,3.138-3.725,4.71-5.584c1.741,0.122,3.482,0.243,5.222,0.364c-1.567,2.048-3.089,4.135-4.711,6.139
		c-5.307,6.558-10.681,13.062-15.954,19.646c-1.021,1.274-1.703,2.819-2.541,4.239c-0.768,0.876-1.535,1.751-2.303,2.626
		c-1.629,1.632-3.258,3.263-4.886,4.895c-1.96,1.96-3.92,3.921-5.88,5.882c-1.854,1.854-3.708,3.708-5.562,5.563
		c-1.416,1.416-2.832,2.833-4.247,4.249c-0.178,0.719-0.576,1.465-0.493,2.153c0.307,2.559,0.771,5.099,1.177,7.646
		c-0.429,0.408-0.908,0.774-1.276,1.23c-2.925,3.622-5.817,7.27-8.743,10.892c-3.674,4.548-7.364,9.083-11.059,13.615
		c-3.045,3.736-6.178,7.403-9.122,11.216c-1.082,1.402-2.839,2.464-2.83,4.568C161.412,214.179,158.798,212.871,156.184,211.563z"/>
	<path fill-rule="evenodd" clip-rule="evenodd" fill="#DEB40B" d="M219.25,140.952c0.838-1.42,1.521-2.964,2.541-4.239
		c5.273-6.584,10.647-13.088,15.954-19.646c1.622-2.004,3.144-4.091,4.711-6.139c1.866,0.233,3.732,0.467,5.886,0.736
		c-0.527,0.557-0.906,0.978-1.305,1.377c-6.179,6.185-12.359,12.368-18.541,18.55c-2.064,2.064-4.142,4.114-6.188,6.196
		c-0.333,0.339-0.535,0.808-0.798,1.216C220.756,139.653,220.003,140.303,219.25,140.952z"/>
	<path fill-rule="evenodd" clip-rule="evenodd" fill="#F8CD24" d="M194.416,104.71c-1.373,1.859-2.69,3.761-4.129,5.567
		c-3.979,4.993-7.997,9.954-12.019,14.912c-4.398,5.421-8.83,10.815-13.224,16.239c-4.427,5.465-8.815,10.962-13.24,16.428
		c-3.916,4.837-7.869,9.644-11.788,14.478c-4.054,5.001-8.077,10.028-12.132,15.029c-3.885,4.792-7.806,9.555-11.689,14.348
		c-4.496,5.549-8.961,11.122-13.454,16.674c-2.927,3.618-5.905,7.196-8.791,10.846c-0.465,0.589-0.57,1.461-0.842,2.202
		c-4.461,2.423-8.922,4.848-13.383,7.272c0.262-0.744,0.348-1.627,0.813-2.209c4.69-5.879,9.434-11.715,14.179-17.551
		c3.993-4.912,8.022-9.796,12.01-14.713c4.906-6.05,9.773-12.133,14.681-18.183c4.875-6.009,9.798-11.979,14.666-17.993
		c4.355-5.382,8.64-10.823,13.002-16.2c5.862-7.228,11.779-14.411,17.655-21.628c6.08-7.468,12.155-14.94,18.189-22.445
		c0.997-1.239,1.773-2.655,2.651-3.989l-0.019-0.094c1.31,0.211,2.62,0.423,3.93,0.634
		C192.459,104.46,193.438,104.585,194.416,104.71z"/>
	<path fill-rule="evenodd" clip-rule="evenodd" fill="#FDD32B" d="M187.57,103.794c-0.878,1.334-1.655,2.75-2.651,3.989
		c-6.035,7.504-12.11,14.977-18.189,22.445c-5.876,7.217-11.793,14.4-17.655,21.628c-4.362,5.377-8.646,10.818-13.002,16.2
		c-4.868,6.014-9.791,11.984-14.666,17.993c-4.908,6.049-9.774,12.132-14.681,18.183c-3.987,4.917-8.017,9.801-12.01,14.713
		c-4.745,5.835-9.489,11.671-14.179,17.551c-0.464,0.582-0.551,1.465-0.813,2.209c-0.879,0.51-1.757,1.021-3.082,1.79
		c0.719-4.083,1.363-7.741,2.008-11.397c0.425-0.091,1.025-0.034,1.246-0.296c2.158-2.566,4.256-5.183,6.364-7.791
		c4.318-5.344,8.619-10.701,12.949-16.034c4.024-4.956,8.091-9.877,12.114-14.834c3.954-4.871,7.862-9.779,11.816-14.651
		c3.988-4.915,8.024-9.792,12.008-14.71c5.346-6.599,10.648-13.231,15.996-19.828c4.872-6.01,9.789-11.983,14.666-17.988
		c4.057-4.997,8.111-9.997,12.113-15.038c1.231-1.55,2.288-3.238,3.424-4.862c0.653,0.005,1.306,0.009,1.959,0.014
		C184.727,103.317,186.149,103.556,187.57,103.794z"/>
	<path fill-rule="evenodd" clip-rule="evenodd" fill="#FED73D" d="M171.587,97.445c0.704,1.244,1.356,2.52,2.136,3.714
		c0.335,0.513,0.935,0.854,1.414,1.273c-0.171,0.327-0.294,0.693-0.52,0.976c-3.55,4.437-7.109,8.865-10.673,13.291
		c-2.749,3.414-5.503,6.824-8.264,10.229c-3.681,4.539-7.377,9.065-11.055,13.607c-3.27,4.038-6.505,8.104-9.789,12.129
		c-4.584,5.62-9.22,11.198-13.798,16.823c-4.474,5.498-8.893,11.041-13.354,16.549c-4.36,5.383-8.76,10.734-13.113,16.124
		c-4.317,5.346-8.587,10.73-12.921,16.063c-0.247,0.303-0.889,0.285-1.347,0.417c0.558-3.776,1.116-7.552,1.674-11.328
		c0.74-0.598,1.604-1.094,2.199-1.813c2.59-3.124,5.088-6.324,7.646-9.475c4.401-5.421,8.831-10.819,13.232-16.24
		c3.582-4.411,7.129-8.851,10.711-13.261c3.924-4.832,7.881-9.638,11.806-14.469c3.617-4.452,7.215-8.92,10.813-13.387
		c3.903-4.847,7.788-9.709,11.699-14.55c3.878-4.8,7.792-9.57,11.667-14.373C165.048,105.657,168.311,101.545,171.587,97.445z"/>
	<path fill-rule="evenodd" clip-rule="evenodd" fill="#FED637" d="M80.304,218.638c0.458-0.132,1.1-0.114,1.347-0.417
		c4.334-5.333,8.604-10.717,12.921-16.063c4.353-5.39,8.752-10.74,13.113-16.124c4.462-5.508,8.88-11.051,13.354-16.549
		c4.578-5.625,9.213-11.203,13.798-16.823c3.284-4.026,6.519-8.092,9.789-12.129c3.677-4.542,7.374-9.068,11.055-13.607
		c2.761-3.404,5.515-6.815,8.264-10.229c3.564-4.425,7.123-8.854,10.673-13.291c0.226-0.283,0.349-0.648,0.52-0.976
		c2.07,0.211,4.139,0.422,6.209,0.633c-1.137,1.625-2.193,3.313-3.424,4.862c-4.002,5.041-8.056,10.041-12.113,15.038
		c-4.877,6.005-9.793,11.979-14.666,17.988c-5.347,6.597-10.65,13.229-15.996,19.828c-3.984,4.918-8.02,9.795-12.008,14.71
		c-3.954,4.872-7.862,9.78-11.816,14.651c-4.022,4.957-8.09,9.878-12.114,14.834c-4.33,5.333-8.631,10.69-12.949,16.034
		c-2.108,2.608-4.207,5.225-6.364,7.791c-0.221,0.263-0.821,0.205-1.246,0.296C79.201,225.611,79.752,222.125,80.304,218.638z"/>
	<path fill-rule="evenodd" clip-rule="evenodd" fill="#FED947" d="M171.587,97.445c-3.277,4.1-6.54,8.212-9.835,12.298
		c-3.875,4.803-7.789,9.573-11.667,14.373c-3.911,4.841-7.795,9.704-11.699,14.55c-3.599,4.467-7.196,8.936-10.813,13.387
		c-3.925,4.832-7.882,9.637-11.806,14.469c-3.583,4.411-7.13,8.85-10.711,13.261c-4.401,5.421-8.832,10.819-13.232,16.24
		c-2.558,3.151-5.056,6.351-7.646,9.475c-0.595,0.719-1.458,1.214-2.199,1.813c-0.028-0.107-0.057-0.213-0.086-0.32
		c0.371-2.182,0.743-4.364,1.115-6.547c0.727-0.494,1.583-0.872,2.156-1.505c1.194-1.321,2.221-2.792,3.347-4.176
		c3.585-4.407,7.198-8.792,10.775-13.206c2.929-3.614,5.813-7.265,8.738-10.883c4.082-5.048,8.187-10.077,12.274-15.119
		c2.896-3.573,5.77-7.165,8.673-10.73c3.588-4.405,7.216-8.778,10.793-13.192c4.359-5.38,8.673-10.796,13.026-16.181
		c3.639-4.501,7.295-8.989,10.964-13.466c2.053-2.504,4.148-4.972,6.224-7.457C170.515,95.5,171.051,96.473,171.587,97.445z"/>
	<path fill-rule="evenodd" clip-rule="evenodd" fill="#FEE379" d="M153.296,61.853c2.055,3.928,4.111,7.855,6.166,11.783
		c-0.438,0.391-0.94,0.729-1.306,1.179c-3.819,4.703-7.616,9.424-11.42,14.139c-3.906,4.841-7.8,9.691-11.721,14.519
		c-3.582,4.409-7.21,8.78-10.786,13.193c-4.835,5.967-9.634,11.963-14.458,17.939c-3.635,4.502-7.276,9.001-10.929,13.489
		c-3.04,3.733-6.177,7.392-9.118,11.201c-1.25,1.619-3.193,2.898-3.181,5.3c-3.153-2.958-6.308-5.914-9.461-8.871
		c0.39-0.44,0.796-0.867,1.168-1.323c2.908-3.564,5.805-7.138,8.713-10.702c5.887-7.21,11.801-14.399,17.662-21.63
		c5.792-7.146,11.512-14.351,17.305-21.497c5.862-7.231,11.793-14.405,17.657-21.635C144.186,73.267,148.728,67.55,153.296,61.853z"
		/>
	<path fill-rule="evenodd" clip-rule="evenodd" fill="#FEE16D" d="M153.296,61.853c-4.568,5.697-9.11,11.414-13.709,17.084
		c-5.864,7.23-11.795,14.404-17.657,21.635c-5.792,7.146-11.512,14.35-17.305,21.497c-5.861,7.231-11.775,14.419-17.662,21.63
		c-2.909,3.564-5.806,7.138-8.713,10.702c-0.372,0.456-0.778,0.882-1.168,1.322c-1.738-1.646-3.475-3.291-5.213-4.937
		c0.059-0.206,0.061-0.458,0.185-0.612c3.29-4.089,6.586-8.173,9.894-12.248c3.614-4.452,7.251-8.885,10.86-13.341
		c3.336-4.121,6.637-8.271,9.973-12.391c3.643-4.498,7.317-8.97,10.962-13.467c3.339-4.119,6.647-8.262,9.984-12.383
		c3.643-4.498,7.301-8.983,10.957-13.471c3.041-3.734,6.12-7.438,9.117-11.206c1.915-2.407,3.71-4.908,5.56-7.366
		C150.671,56.818,151.983,59.335,153.296,61.853z"/>
	<path fill-rule="evenodd" clip-rule="evenodd" fill="#FEE16D" d="M86.542,164.596c-0.012-2.402,1.932-3.682,3.181-5.301
		c2.941-3.81,6.079-7.468,9.118-11.201c3.653-4.488,7.294-8.986,10.929-13.489c4.824-5.976,9.624-11.972,14.458-17.939
		c3.576-4.413,7.205-8.784,10.786-13.193c3.921-4.828,7.815-9.678,11.721-14.519c3.804-4.715,7.601-9.436,11.42-14.139
		c0.366-0.45,0.868-0.789,1.306-1.179c1.215,2.397,2.429,4.795,3.644,7.192c-0.704,0.385-1.602,0.607-2.078,1.181
		c-3.943,4.745-7.803,9.558-11.697,14.343c-3.998,4.911-8.019,9.802-12.007,14.72c-3.953,4.875-7.865,9.783-11.819,14.657
		c-3.989,4.917-8.019,9.801-12.012,14.715c-3.549,4.367-7.071,8.755-10.603,13.136c-3.94,4.886-7.825,9.817-11.853,14.629
		c-0.984,1.175-1.489,3.023-3.47,3.149c0.022-0.434-0.041-0.892,0.079-1.296C88.244,168.035,88.53,166.093,86.542,164.596z"/>
	<path fill-rule="evenodd" clip-rule="evenodd" fill="#FEDE61" d="M87.566,171.359c1.981-0.126,2.486-1.974,3.47-3.149
		c4.027-4.812,7.913-9.743,11.853-14.629c3.532-4.381,7.054-8.769,10.603-13.136c3.993-4.914,8.022-9.798,12.012-14.715
		c3.955-4.874,7.867-9.782,11.819-14.657c3.988-4.918,8.009-9.81,12.007-14.72c3.895-4.785,7.754-9.598,11.697-14.343
		c0.476-0.573,1.375-0.795,2.078-1.181c0.772,1.517,1.543,3.033,2.314,4.549c-0.463,0.446-0.98,0.849-1.381,1.344
		c-4.328,5.34-8.625,10.706-12.958,16.042c-4.025,4.96-8.099,9.881-12.122,14.843c-4.397,5.422-8.755,10.877-13.142,16.309
		c-3.639,4.505-7.294,8.995-10.94,13.495c-2.863,3.533-5.713,7.077-8.583,10.603c-4.034,4.954-8.095,9.884-12.119,14.845
		c-2.42,2.983-4.782,6.015-7.204,8.997c-0.243,0.299-0.719,0.41-1.087,0.608c0.125-1.305,0.25-2.61,0.374-3.916
		C86.694,176.152,87.13,173.756,87.566,171.359z"/>
	<path fill-rule="evenodd" clip-rule="evenodd" fill="#FEDC58" d="M85.884,182.464c0.368-0.198,0.844-0.309,1.087-0.608
		c2.422-2.982,4.783-6.014,7.204-8.997c4.024-4.961,8.085-9.892,12.119-14.845c2.871-3.526,5.721-7.07,8.583-10.603
		c3.646-4.5,7.302-8.99,10.94-13.495c4.387-5.432,8.745-10.887,13.142-16.309c4.023-4.961,8.097-9.883,12.122-14.843
		c4.332-5.337,8.629-10.703,12.958-16.042c0.401-0.495,0.918-0.898,1.381-1.344c0.855,1.644,1.71,3.288,2.565,4.932
		c-0.367,0.203-0.837,0.322-1.083,0.623c-3.295,4.015-6.567,8.049-9.829,12.091c-4.891,6.063-9.749,12.153-14.657,18.201
		c-6.308,7.773-12.671,15.499-18.974,23.276c-5.79,7.145-11.518,14.34-17.296,21.494c-6.492,8.04-12.995,16.07-19.543,24.064
		c-0.556,0.678-1.491,1.046-2.25,1.557c-0.016-0.215-0.031-0.431-0.047-0.646c0.212-1.527,0.425-3.054,0.637-4.581
		C85.256,185.081,85.57,183.772,85.884,182.464z"/>
	<path fill-rule="evenodd" clip-rule="evenodd" fill="#FDDA4D" d="M84.352,191.616c0.758-0.511,1.693-0.879,2.25-1.557
		c6.548-7.994,13.051-16.024,19.543-24.064c5.778-7.154,11.506-14.35,17.296-21.494c6.303-7.777,12.667-15.503,18.974-23.276
		c4.909-6.048,9.766-12.138,14.657-18.201c3.262-4.042,6.534-8.076,9.829-12.091c0.247-0.301,0.717-0.419,1.083-0.623
		c0.664,1.406,1.328,2.813,1.993,4.219c-2.075,2.484-4.17,4.953-6.223,7.457c-3.669,4.477-7.326,8.964-10.964,13.466
		c-4.353,5.384-8.667,10.801-13.026,16.181c-3.577,4.414-7.205,8.787-10.793,13.192c-2.904,3.566-5.777,7.158-8.673,10.73
		c-4.088,5.042-8.193,10.071-12.274,15.119c-2.925,3.618-5.809,7.269-8.738,10.883c-3.578,4.414-7.19,8.799-10.775,13.206
		c-1.126,1.384-2.153,2.854-3.347,4.176c-0.573,0.634-1.429,1.012-2.156,1.505c0.118-1.195,0.235-2.391,0.353-3.586
		C83.691,195.11,84.021,193.363,84.352,191.616z"/>
	<path fill-rule="evenodd" clip-rule="evenodd" fill="#FEDE61" d="M149.359,54.301c-1.85,2.458-3.646,4.959-5.56,7.366
		c-2.997,3.769-6.077,7.472-9.117,11.206c-3.655,4.488-7.313,8.973-10.957,13.471c-3.336,4.121-6.645,8.264-9.984,12.383
		c-3.645,4.497-7.319,8.969-10.962,13.467c-3.336,4.12-6.637,8.27-9.973,12.391c-3.609,4.456-7.246,8.89-10.86,13.341
		c-3.308,4.075-6.604,8.158-9.894,12.248c-0.124,0.154-0.126,0.406-0.185,0.612c-1.084-1.001-2.168-2.002-3.252-3.003
		c4.814-5.844,9.652-11.669,14.437-17.538c6.527-8.005,13.016-16.042,19.514-24.07c0.573-0.708,1.188-1.434,0.677-2.454
		c0.959-0.125,1.922-0.227,2.878-0.378c1.235-0.195,2.059-0.691,2.518-2.076c0.727-2.19,1.833-4.256,2.778-6.375
		c0.435-0.654,0.87-1.308,1.305-1.961c0.746-0.477,1.671-0.803,2.208-1.451c4.87-5.875,9.695-11.789,14.489-17.727
		c5.235-6.484,10.413-13.016,15.645-19.502c0.895-1.109,1.936-2.099,2.909-3.144C148.436,52.171,148.897,53.236,149.359,54.301z"/>
	<path fill-rule="evenodd" clip-rule="evenodd" fill="#FEDC58" d="M147.974,51.106c-0.973,1.045-2.015,2.035-2.909,3.144
		c-5.232,6.487-10.409,13.018-15.645,19.502c-4.794,5.938-9.619,11.851-14.489,17.727c-0.538,0.648-1.463,0.975-2.208,1.451
		c0.978-2.173,1.96-4.344,2.93-6.52c0.241-0.541,0.444-1.099,0.665-1.649c1.422-2.849,2.854-5.694,4.257-8.553
		c0.184-0.376,0.216-0.826,0.319-1.241c0.758-1.313,1.517-2.625,2.275-3.937c0.622-0.48,1.352-0.87,1.846-1.458
		c1.665-1.978,3.233-4.038,4.863-6.046c4.517-5.567,9.033-11.136,13.593-16.667c0.395-0.479,1.116-0.69,1.686-1.025
		C146.096,47.592,147.035,49.349,147.974,51.106z"/>
	<path fill-rule="evenodd" clip-rule="evenodd" fill="#FDDA4D" d="M145.157,45.835c-0.57,0.335-1.291,0.546-1.686,1.025
		c-4.561,5.531-9.077,11.1-13.593,16.667c-1.629,2.009-3.198,4.068-4.863,6.046c-0.495,0.588-1.224,0.977-1.846,1.458
		c0.442-1.297,0.884-2.594,1.327-3.891c0.981-2.066,1.963-4.132,2.945-6.198c0.979-1.965,1.956-3.931,2.934-5.896
		c1.097-2.29,2.192-4.581,3.288-6.872c1.415-2.941,2.829-5.883,4.243-8.825c0.642-1.17,1.283-2.341,2.129-3.885
		C141.826,39.088,143.491,42.461,145.157,45.835z"/>
	<path fill-rule="evenodd" clip-rule="evenodd" fill="#F3C91F" d="M54.876,111.535c0.22,0.007,0.44,0.015,0.66,0.022
		c-0.24,0.585-0.354,1.274-0.739,1.74c-3.325,4.024-6.699,8.008-10.059,12.005c-0.538-0.451-1.075-0.901-1.612-1.352
		c-2.162-2.01-4.348-3.995-6.475-6.041c-0.885-0.852-1.643-1.835-2.616-2.936c1.053-0.184,1.961-0.343,2.87-0.501
		c3.159-0.538,6.318-1.076,9.478-1.614C49.214,112.417,52.045,111.976,54.876,111.535z"/>
	<path fill-rule="evenodd" clip-rule="evenodd" fill="#FED637" d="M196.032,231.507c-1.438-0.671-2.874-1.349-4.316-2.011
		c-0.726-0.333-1.463-0.638-2.196-0.956c-0.008-0.096-0.012-0.193-0.011-0.29c0.29-0.678,0.448-1.459,0.89-2.016
		c3.557-4.483,7.144-8.942,10.777-13.363c0.797-0.97,1.815-1.757,2.732-2.628c0.328,1.526,0.656,3.053,0.984,4.58
		c0.324,1.96,0.647,3.921,0.971,5.882c-0.422,0.295-0.939,0.513-1.252,0.897c-2.44,3.002-4.827,6.048-7.271,9.046
		C197.026,231.034,196.474,231.226,196.032,231.507z"/>
	<path fill-rule="evenodd" clip-rule="evenodd" fill="#FED947" d="M196.032,231.507c0.442-0.281,0.994-0.473,1.309-0.858
		c2.445-2.998,4.832-6.044,7.271-9.046c0.313-0.384,0.83-0.602,1.252-0.897c0.649,3.186,1.331,6.365,1.937,9.56
		c0.489,2.576,0.888,5.17,1.326,7.756c-1-0.392-2.024-0.731-2.996-1.185c-2.606-1.216-5.19-2.481-7.784-3.727
		C197.575,232.575,196.803,232.041,196.032,231.507z"/>
	<path fill-rule="evenodd" clip-rule="evenodd" fill="#F3C91F" d="M177.803,222.64c-1.662-0.947-3.324-1.893-4.986-2.84
		c0.176-0.337,0.301-0.715,0.534-1.005c3.287-4.085,6.585-8.161,9.888-12.233c4.493-5.541,8.974-11.091,13.503-16.603
		c0.866-1.054,1.93-1.947,2.903-2.914c0.439,2.07,0.878,4.14,1.317,6.21c0.323,1.96,0.646,3.921,0.968,5.882
		c-0.326,0.169-0.746,0.259-0.963,0.518c-1.521,1.821-3.002,3.677-4.495,5.522c-3.561,4.402-7.159,8.775-10.662,13.223
		c-1.485,1.886-2.765,3.934-4.137,5.908C180.383,223.753,179.093,223.197,177.803,222.64z"/>
	<path fill-rule="evenodd" clip-rule="evenodd" fill="#FDD32B" d="M181.673,224.309c1.373-1.974,2.652-4.022,4.137-5.908
		c3.502-4.448,7.101-8.821,10.662-13.223c1.493-1.845,2.974-3.701,4.495-5.522c0.217-0.259,0.637-0.349,0.963-0.518
		c0.659,3.702,1.318,7.404,1.978,11.106c-0.917,0.871-1.935,1.658-2.732,2.628c-3.633,4.42-7.22,8.879-10.777,13.363
		c-0.442,0.557-0.6,1.338-0.89,2.016C186.897,226.937,184.285,225.623,181.673,224.309z"/>
	<path fill-rule="evenodd" clip-rule="evenodd" fill="#E8BE15" d="M199.645,187.045c-0.973,0.967-2.037,1.859-2.903,2.914
		c-4.529,5.512-9.01,11.062-13.503,16.603c-3.303,4.072-6.601,8.147-9.888,12.233c-0.233,0.29-0.358,0.667-0.534,1.005
		c-1.078-0.461-2.156-0.922-3.234-1.383c-1.853-0.976-3.705-1.953-5.557-2.93c-0.01-2.104,1.748-3.166,2.83-4.567
		c2.944-3.813,6.077-7.48,9.122-11.216c3.694-4.532,7.384-9.067,11.059-13.615c2.925-3.622,5.817-7.27,8.743-10.892
		c0.369-0.456,0.848-0.822,1.276-1.23c0.217,0.767,0.435,1.534,0.652,2.301C198.353,179.859,198.999,183.453,199.645,187.045z"/>
	<path fill-rule="evenodd" clip-rule="evenodd" fill="#FED73D" d="M70.891,108.961c1.199-0.225,2.398-0.448,3.598-0.672
		c2.178-0.328,4.356-0.656,6.534-0.984c0.763-0.105,1.525-0.21,2.288-0.315c-0.167,0.547-0.198,1.201-0.525,1.624
		c-2.116,2.736-4.277,5.438-6.459,8.121c-4.909,6.041-9.861,12.045-14.74,18.11c-0.957,1.189-1.657,2.583-2.475,3.883
		c-2.175-1.969-4.35-3.939-6.525-5.909c-0.018-0.106-0.034-0.213-0.049-0.321c5.525-6.787,11.068-13.559,16.553-20.377
		C69.841,111.188,70.298,110.02,70.891,108.961z"/>
	<path fill-rule="evenodd" clip-rule="evenodd" fill="#BE9F20" d="M52.586,132.819c2.175,1.97,4.35,3.94,6.525,5.909
		c1.848,1.746,3.697,3.492,5.545,5.239c1.229,1.278,2.459,2.555,3.688,3.833c-1.436,0.945-0.154,1.743,0.248,2.412
		c4.747,7.907,9.535,15.788,14.361,23.647c0.999,1.626,2.197,3.13,3.303,4.69c-0.124,1.305-0.249,2.61-0.374,3.916
		c-0.314,1.308-0.628,2.617-0.941,3.925c-1.302-1.844-2.714-3.62-3.887-5.542c-8.049-13.188-16.046-26.407-24.062-39.615
		c-1.209-1.993-2.478-3.952-3.621-5.981C52.963,134.523,52.84,133.634,52.586,132.819z"/>
	<path fill-rule="evenodd" clip-rule="evenodd" fill="#FDD32B" d="M70.891,108.961c-0.593,1.059-1.05,2.227-1.8,3.16
		c-5.485,6.819-11.028,13.591-16.553,20.377c-2.6-2.399-5.2-4.798-7.799-7.197c3.359-3.996,6.733-7.98,10.059-12.004
		c0.385-0.466,0.499-1.154,0.739-1.74c2.178-0.435,4.356-0.871,6.534-1.307c2.069-0.326,4.138-0.652,6.208-0.978
		C69.148,109.169,70.02,109.064,70.891,108.961z"/>
	<path fill-rule="evenodd" clip-rule="evenodd" fill="#FEDC58" d="M68.345,147.8c-1.229-1.278-2.459-2.555-3.688-3.834
		c0.182-0.559,0.233-1.216,0.569-1.659c1.372-1.809,2.827-3.556,4.259-5.319c3.648-4.49,7.299-8.977,10.95-13.464
		c3.48-4.279,6.989-8.535,10.43-12.846c1.371-1.718,2.592-3.555,3.881-5.337c0.111-0.109,0.222-0.218,0.333-0.328
		c2.287-0.326,4.573-0.652,6.86-0.978c0.435-0.105,0.869-0.21,1.304-0.315c0.511,1.021-0.104,1.746-0.677,2.454
		c-6.498,8.028-12.987,16.064-19.514,24.07c-4.785,5.869-9.623,11.694-14.437,17.539C68.526,147.795,68.436,147.8,68.345,147.8z"/>
	<path fill-rule="evenodd" clip-rule="evenodd" fill="#FDDA4D" d="M94.747,105.341c-1.289,1.783-2.511,3.62-3.881,5.337
		c-3.441,4.311-6.95,8.567-10.43,12.846c-3.651,4.487-7.302,8.974-10.95,13.464c-1.432,1.763-2.887,3.51-4.259,5.319
		c-0.335,0.442-0.387,1.1-0.569,1.659c-1.849-1.746-3.697-3.492-5.545-5.238c0.818-1.3,1.519-2.694,2.475-3.883
		c4.878-6.065,9.831-12.07,14.74-18.11c2.182-2.684,4.343-5.385,6.459-8.121c0.327-0.423,0.357-1.077,0.525-1.624
		c1.527-0.327,3.054-0.654,4.581-0.981C90.176,105.786,92.461,105.563,94.747,105.341z"/>
	<path fill-rule="evenodd" clip-rule="evenodd" fill="#C7A92E" d="M68.345,147.8c0.09,0,0.181-0.005,0.271-0.017
		c1.084,1.001,2.168,2.002,3.252,3.003c1.738,1.646,3.475,3.291,5.213,4.937c3.153,2.958,6.308,5.914,9.461,8.872
		c1.988,1.498,1.702,3.44,1.104,5.468c-0.12,0.405-0.057,0.863-0.079,1.296c-0.436,2.396-0.872,4.792-1.309,7.189
		c-1.106-1.56-2.304-3.064-3.303-4.69c-4.827-7.859-9.615-15.74-14.361-23.647C68.191,149.543,66.91,148.745,68.345,147.8z"/>
</g>
</svg>
