<?xml version="1.0" encoding="utf-8"?>
<!-- Generator: Adobe Illustrator 16.0.0, SVG Export Plug-In . SVG Version: 6.00 Build 0)  -->
<!DOCTYPE svg PUBLIC "-//W3C//DTD SVG 1.1//EN" "http://www.w3.org/Graphics/SVG/1.1/DTD/svg11.dtd">
<svg version="1.1" id="Layer_1" xmlns="http://www.w3.org/2000/svg" xmlns:xlink="http://www.w3.org/1999/xlink" x="0px" y="0px"
	 width="402.333px" height="113.951px" viewBox="0 0 402.333 113.951" enable-background="new 0 0 402.333 113.951"
	 xml:space="preserve">
<g>
	<path fill="#00A8CC" d="M397.759,20.399c-4.467-9.623-13.47-16.496-24.763-18.887c-2.39-0.506-4.799-0.762-7.158-0.762
		c-8.278,0-15.314,3.041-20.713,7.654c-1.14-0.416-2.359-0.637-3.609-0.637c-0.64,0-1.283,0.059-1.909,0.177
		c-2.885,0.537-8.117,1.111-14.153,1.111c-4.92,0-9.293-0.378-12.643-1.094c-0.719-0.153-1.458-0.231-2.193-0.231
		c-2.641,0-5.217,1.013-7.196,2.807c-5.276-3.935-11.542-6.089-18.256-6.089c-2.077,0-4.207,0.203-6.333,0.605
		c-4.626,0.874-9.663,2.68-14.026,6.195c-0.271-0.979-0.673-1.91-1.191-2.768c-1.604-4.104-5.583-7.017-10.225-7.017
		c-0.516,0-1.038,0.038-1.55,0.111c-8.13,1.158-23.071,2-35.526,2c-4.342,0-8.097-0.107-10.862-0.31l-0.429-0.029h-0.359
		c-3.071,0-6.033,1.322-8.127,3.628c-2.145,2.362-3.202,5.525-2.896,8.688c0.607,6.231,1.067,14.168,1.339,22.692
		c-4.547-4.189-9.133-5.124-12.293-5.124l-0.339,0.003c-5.802,0.119-10.561,3.09-14.231,8.843c-1.334-1.348-2.879-2.582-4.628-3.689
		c-3.654-2.319-7.396-3.494-11.117-3.494l-0.361,0.004c-1.736,0.035-3.422,0.336-5.026,0.887c-0.562-0.254-1.11-0.455-1.644-0.618
		c-0.335-1.474-0.882-2.877-1.64-4.171c-0.885-2.067-2.238-3.917-3.982-5.42c-2.908-2.503-6.432-3.826-10.195-3.826l-0.33,0.003
		c-3.772,0.077-7.283,1.571-9.884,4.206c-1.878,1.902-3.127,4.272-3.687,6.869c-1.267,0.288-2.476,0.818-3.742,1.629
		c0.038-1.39,0.14-1.906,0.145-1.928c0.521-2.298,0.734-3.473,0.708-4.812c-0.041-2.077-0.624-4.083-1.683-5.868
		c-0.933-2.32-2.607-4.353-4.923-5.923c-2.586-1.75-5.309-2.635-8.094-2.635l-0.26,0.002c-3.157,0.063-6.249,1.197-8.953,3.281
		c-5.062,3.78-5.738,8.527-5.688,11.032c0.024,1.21,0.208,2.543,0.588,4.25c0.223,0.973,0.499,2.827,0.581,6.111
		c-2.905-1.22-6.153-1.862-9.692-1.862c-0.206,0-0.412,0.002-0.619,0.007c-1.762,0.036-3.469,0.277-5.102,0.713
		c1.459-2.159,2.227-4.75,2.173-7.458c-0.042-2.056-0.623-4.018-1.679-5.756c-1.113-2.73-3.613-5.891-9.137-7.795l-0.165-0.056
		c-2.778-0.903-5.255-1.341-7.573-1.341l-0.365,0.003c-7.785,0.161-13.829,4.623-16.167,11.938l-0.123,0.381l-0.09,0.39
		c-0.6,2.579-1.091,4.814-1.483,6.74c-0.279-2.294-0.489-4.092-0.632-5.395l-0.398-3.624l-0.712-0.667l-0.107-0.974l-2.664-2.495
		c-3.653-3.42-7.301-5.083-11.155-5.083l-0.257,0.002C5.148,15.797,0.618,23.811,0.753,30.593c0.027,1.381,0.321,3.256,1.371,5.242
		c0.012,3.777-0.09,8.96-0.303,15.461c-0.276,8.393-0.368,14.578-0.282,18.91c0.16,8.053,1.239,13.508,3.475,17.458
		c2.495,5.596,7.166,8.904,12.657,8.904l0.277-0.002c5.453-0.112,9.214-2.229,11.458-5.138c2.114,1.221,4.558,1.973,7.374,1.973
		l0.301-0.003c3.154-0.064,5.743-1.22,7.883-3.028c2.209,3.433,6.166,7.461,12.571,7.461l0.295-0.002
		c3.464-0.073,6.557-1.443,8.878-3.81c2.414,0.76,4.905,1.155,7.454,1.155c0.172,0,0.346-0.002,0.521-0.005
		c1.134-0.024,2.259-0.117,3.373-0.278c2.337,1.792,5.336,2.8,8.707,2.8l0.368-0.003c3.161-0.066,5.958-1.08,8.148-2.796
		c1.536,0.538,3.167,0.833,4.856,0.833l0.323-0.003c2.999-0.063,5.889-1.155,8.377-3.174c0.036-0.028,0.07-0.057,0.104-0.085
		c3.396,3.544,7.507,6.724,12.673,6.724l0.244-0.003c4.659-0.095,8.428-2.775,10.857-4.782l0.056-0.047
		c0.035,0,0.068,0.003,0.104,0.003l0.391-0.004c1.006-0.021,2.742-0.213,4.668-1.075c1.79,0.779,3.778,1.202,5.899,1.202
		l0.349-0.003c2.926-0.062,5.72-1.064,8.08-2.899c0.379-0.295,0.738-0.607,1.077-0.937l2.204,1.16
		c1.947,1.023,3.619,1.73,5.158,2.178c-0.006,0.261-0.026,0.517-0.02,0.781c0.044,2.179,0.645,4.282,1.758,6.188
		c1.709,4.214,5.693,7.484,11.888,9.744c4.526,1.691,8.442,2.513,11.97,2.513c0.154,0,0.306-0.001,0.458-0.004
		c4.173-0.086,8.145-1.387,11.806-3.869c1.873-1.271,3.484-2.787,4.809-4.496c0.688,0.139,1.388,0.219,2.096,0.219h20.395
		c1.468,0,2.859-0.28,4.134-0.776c1.211,0.583,2.531,0.958,3.905,1.06l0.34,0.025l12.96,0.071l0.054,0.004h0.371
		c1.829,0,3.579-0.46,5.123-1.297c1.298,0.667,2.733,1.079,4.214,1.19l0.345,0.025c0,0,12.262,0.06,12.363,0.06
		c3.712,0,6.907-1.791,8.864-4.637c3.782,1.837,7.943,2.788,12.391,2.788c2.069,0,4.217-0.207,6.385-0.616
		c8.779-1.657,15.758-6.153,20.233-12.904c0.791,0.009,1.606,0.013,2.439,0.013c3.322,0,6.771-0.066,10.03-0.189
		c3.757,5.608,10.596,11.498,23.039,14.132c2.368,0.502,4.75,0.756,7.083,0.756c15.912,0,29.115-11.867,32.854-29.528
		c1.528-7.209,0.213-15.219-3.698-22.589c-0.13-0.276-0.264-0.551-0.401-0.824c0.369,0.038,0.741,0.057,1.113,0.057l0,0
		c5.258,0,9.715-3.708,10.835-9.013C402.48,35.104,401.386,27.146,397.759,20.399"/>
	<path fill="none" stroke="#00A8CC" stroke-width="1.5" stroke-miterlimit="10" d="M397.759,20.399
		c-4.467-9.623-13.47-16.496-24.763-18.887c-2.39-0.506-4.799-0.762-7.158-0.762c-8.278,0-15.314,3.041-20.713,7.654
		c-1.14-0.416-2.359-0.637-3.609-0.637c-0.64,0-1.283,0.059-1.909,0.177c-2.885,0.537-8.117,1.111-14.153,1.111
		c-4.92,0-9.293-0.378-12.643-1.094c-0.719-0.153-1.458-0.231-2.193-0.231c-2.641,0-5.217,1.013-7.196,2.807
		c-5.276-3.935-11.542-6.089-18.256-6.089c-2.077,0-4.207,0.203-6.333,0.605c-4.626,0.874-9.663,2.68-14.026,6.195
		c-0.271-0.979-0.673-1.91-1.191-2.768c-1.604-4.104-5.583-7.017-10.225-7.017c-0.516,0-1.038,0.038-1.55,0.111
		c-8.13,1.158-23.071,2-35.526,2c-4.342,0-8.097-0.107-10.862-0.31l-0.429-0.029h-0.359c-3.071,0-6.033,1.322-8.127,3.628
		c-2.145,2.362-3.202,5.525-2.896,8.688c0.607,6.231,1.067,14.168,1.339,22.692c-4.547-4.189-9.133-5.124-12.293-5.124l-0.339,0.003
		c-5.802,0.119-10.561,3.09-14.231,8.843c-1.334-1.348-2.879-2.582-4.628-3.689c-3.654-2.319-7.396-3.494-11.117-3.494l-0.361,0.004
		c-1.736,0.035-3.422,0.336-5.026,0.887c-0.562-0.254-1.11-0.455-1.644-0.618c-0.335-1.474-0.882-2.877-1.64-4.171
		c-0.885-2.067-2.238-3.917-3.982-5.42c-2.908-2.503-6.432-3.826-10.195-3.826l-0.33,0.003c-3.772,0.077-7.283,1.571-9.884,4.206
		c-1.878,1.902-3.127,4.272-3.687,6.869c-1.267,0.288-2.476,0.818-3.742,1.629c0.038-1.39,0.14-1.906,0.145-1.928
		c0.521-2.298,0.734-3.473,0.708-4.812c-0.041-2.077-0.624-4.083-1.683-5.868c-0.933-2.32-2.607-4.353-4.923-5.923
		c-2.586-1.75-5.309-2.635-8.094-2.635l-0.26,0.002c-3.157,0.063-6.249,1.197-8.953,3.281c-5.062,3.78-5.738,8.527-5.688,11.032
		c0.024,1.21,0.208,2.543,0.588,4.25c0.223,0.973,0.499,2.827,0.581,6.111c-2.905-1.22-6.153-1.862-9.692-1.862
		c-0.206,0-0.412,0.002-0.619,0.007c-1.762,0.036-3.469,0.277-5.102,0.713c1.459-2.159,2.227-4.75,2.173-7.458
		c-0.042-2.056-0.623-4.018-1.679-5.756c-1.113-2.73-3.613-5.891-9.137-7.795l-0.165-0.056c-2.778-0.903-5.255-1.341-7.573-1.341
		l-0.365,0.003c-7.785,0.161-13.829,4.623-16.167,11.938l-0.123,0.381l-0.09,0.39c-0.6,2.579-1.091,4.814-1.483,6.74
		c-0.279-2.294-0.489-4.092-0.632-5.395l-0.398-3.624l-0.712-0.667l-0.107-0.974l-2.664-2.495c-3.653-3.42-7.301-5.083-11.155-5.083
		l-0.257,0.002C5.148,15.797,0.618,23.811,0.753,30.593c0.027,1.381,0.321,3.256,1.371,5.242c0.012,3.777-0.09,8.96-0.303,15.461
		c-0.276,8.393-0.368,14.578-0.282,18.91c0.16,8.053,1.239,13.508,3.475,17.458c2.495,5.596,7.166,8.904,12.657,8.904l0.277-0.002
		c5.453-0.112,9.214-2.229,11.458-5.138c2.114,1.221,4.558,1.973,7.374,1.973l0.301-0.003c3.154-0.064,5.743-1.22,7.883-3.028
		c2.209,3.433,6.166,7.461,12.571,7.461l0.295-0.002c3.464-0.073,6.557-1.443,8.878-3.81c2.414,0.76,4.905,1.155,7.454,1.155
		c0.172,0,0.346-0.002,0.521-0.005c1.134-0.024,2.259-0.117,3.373-0.278c2.337,1.792,5.336,2.8,8.707,2.8l0.368-0.003
		c3.161-0.066,5.958-1.08,8.148-2.796c1.536,0.538,3.167,0.833,4.856,0.833l0.323-0.003c2.999-0.063,5.889-1.155,8.377-3.174
		c0.036-0.028,0.07-0.057,0.104-0.085c3.396,3.544,7.507,6.724,12.673,6.724l0.244-0.003c4.659-0.095,8.428-2.775,10.857-4.782
		l0.056-0.047c0.035,0,0.068,0.003,0.104,0.003l0.391-0.004c1.006-0.021,2.742-0.213,4.668-1.075
		c1.79,0.779,3.778,1.202,5.899,1.202l0.349-0.003c2.926-0.062,5.72-1.064,8.08-2.899c0.379-0.295,0.738-0.607,1.077-0.937
		l2.204,1.16c1.947,1.023,3.619,1.73,5.158,2.178c-0.006,0.261-0.026,0.517-0.02,0.781c0.044,2.179,0.645,4.282,1.758,6.188
		c1.709,4.214,5.693,7.484,11.888,9.744c4.526,1.691,8.442,2.513,11.97,2.513c0.154,0,0.306-0.001,0.458-0.004
		c4.173-0.086,8.145-1.387,11.806-3.869c1.873-1.271,3.484-2.787,4.809-4.496c0.688,0.139,1.388,0.219,2.096,0.219h20.395
		c1.468,0,2.859-0.28,4.134-0.776c1.211,0.583,2.531,0.958,3.905,1.06l0.34,0.025l12.96,0.071l0.054,0.004h0.371
		c1.829,0,3.579-0.46,5.123-1.297c1.298,0.667,2.733,1.079,4.214,1.19l0.345,0.025c0,0,12.262,0.06,12.363,0.06
		c3.712,0,6.907-1.791,8.864-4.637c3.782,1.837,7.943,2.788,12.391,2.788c2.069,0,4.217-0.207,6.385-0.616
		c8.779-1.657,15.758-6.153,20.233-12.904c0.791,0.009,1.606,0.013,2.439,0.013c3.322,0,6.771-0.066,10.03-0.189
		c3.757,5.608,10.596,11.498,23.039,14.132c2.368,0.502,4.75,0.756,7.083,0.756c15.912,0,29.115-11.867,32.854-29.528
		c1.528-7.209,0.213-15.219-3.698-22.589c-0.13-0.276-0.264-0.551-0.401-0.824c0.369,0.038,0.741,0.057,1.113,0.057l0,0
		c5.258,0,9.715-3.708,10.835-9.013C402.48,35.104,401.386,27.146,397.759,20.399z"/>
	<path d="M61.211,29.456c0.016,0.81-0.212,1.479-0.685,2.009c-0.786,0.998-1.205,1.528-1.256,1.585
		c-0.31,0.585-0.603,2.094-0.876,4.528c-1.109,11.815-1.547,23.474-1.319,34.973c0.128,6.472,1.272,10.091,3.436,10.855l0.047,2.34
		c-0.615,1.457-1.594,2.201-2.935,2.229c-2.735,0.056-4.853-2.472-6.35-7.586c-1.091-3.62-1.677-7.424-1.756-11.411
		c-0.173-8.724-0.104-16.01,0.21-21.855c-1.472,6.794-2.969,13.618-4.492,20.469c-2.788,10.579-5.574,15.896-8.357,15.953
		c-3.157,0.065-6.001-2.967-8.532-9.102c-2.359-5.56-5.3-14.921-8.828-28.088c-0.244,3.937-0.323,7.957-0.243,12.058
		c0.169,8.495,0.498,14.644,0.989,18.451c0.065,0.693,0.385,1.799,0.96,3.318c0.575,1.521,0.872,2.713,0.889,3.58
		c0.038,1.907-1.419,2.891-4.37,2.952c-3.488,0.071-5.331-4.948-5.532-15.061c-0.081-4.102,0.011-10.232,0.279-18.39
		c0.268-8.156,0.361-14.257,0.282-18.303c-0.009-0.461-0.234-0.949-0.673-1.461c-0.44-0.51-0.665-0.996-0.673-1.458
		c-0.064-3.236,2.586-4.909,7.952-5.019c1.232-0.025,2.725,0.782,4.476,2.421c0.196,1.79,0.518,4.499,0.966,8.133
		c0.638,5.075,2.032,11.781,4.183,20.116c2.843,10.753,5.231,16.109,7.162,16.069c0.429-0.008,0.975-0.916,1.637-2.722
		c1.272-3.496,2.491-8.404,3.654-14.729c0.865-5.046,1.731-10.094,2.598-15.142c0.382-2.377,1.092-5.803,2.131-10.276
		c1.06-3.318,3.388-5.013,6.983-5.086c1.288-0.026,2.851,0.26,4.687,0.858C60.07,27.427,61.189,28.359,61.211,29.456"/>
	<path fill="none" stroke="#000000" stroke-width="1.5" stroke-miterlimit="10" d="M61.211,29.456
		c0.016,0.81-0.212,1.479-0.685,2.009c-0.786,0.998-1.205,1.528-1.256,1.585c-0.31,0.585-0.603,2.094-0.876,4.528
		c-1.109,11.815-1.547,23.474-1.319,34.973c0.128,6.472,1.272,10.091,3.436,10.855l0.047,2.34c-0.615,1.457-1.594,2.201-2.935,2.229
		c-2.735,0.056-4.853-2.472-6.35-7.586c-1.091-3.62-1.677-7.424-1.756-11.411c-0.173-8.724-0.104-16.01,0.21-21.855
		c-1.472,6.794-2.969,13.618-4.492,20.469c-2.788,10.579-5.574,15.896-8.357,15.953c-3.157,0.065-6.001-2.967-8.532-9.102
		c-2.359-5.56-5.3-14.921-8.828-28.088c-0.244,3.937-0.323,7.957-0.243,12.058c0.169,8.495,0.498,14.644,0.989,18.451
		c0.065,0.693,0.385,1.799,0.96,3.318c0.575,1.521,0.872,2.713,0.889,3.58c0.038,1.907-1.419,2.891-4.37,2.952
		c-3.488,0.071-5.331-4.948-5.532-15.061c-0.081-4.102,0.011-10.232,0.279-18.39c0.268-8.156,0.361-14.257,0.282-18.303
		c-0.009-0.461-0.234-0.949-0.673-1.461c-0.44-0.51-0.665-0.996-0.673-1.458c-0.064-3.236,2.586-4.909,7.952-5.019
		c1.232-0.025,2.725,0.782,4.476,2.421c0.196,1.79,0.518,4.499,0.966,8.133c0.638,5.075,2.032,11.781,4.183,20.116
		c2.843,10.753,5.231,16.109,7.162,16.069c0.429-0.008,0.975-0.916,1.637-2.722c1.272-3.496,2.491-8.404,3.654-14.729
		c0.865-5.046,1.731-10.094,2.598-15.142c0.382-2.377,1.092-5.803,2.131-10.276c1.06-3.318,3.388-5.013,6.983-5.086
		c1.288-0.026,2.851,0.26,4.687,0.858C60.07,27.427,61.189,28.359,61.211,29.456z"/>
	<path d="M90.585,69.289c0.148,7.453,0.036,12.717-0.332,15.789c-0.234,1.795-1.342,2.714-3.327,2.756
		c-3.004,0.061-4.379-1.53-4.121-4.771c-2.656,1.441-5.431,2.192-8.329,2.252c-2.79,0.057-5.46-0.639-8.012-2.09
		c-3.041-1.73-4.587-3.982-4.643-6.756c-0.053-2.714,1.612-5.292,4.999-7.732c3.069-2.201,5.973-3.332,8.709-3.387l6.84-0.141
		l-0.041-2.064c-0.066-6.021-1.789-8.998-5.168-8.928c-4.239,0.087-6.317,2.247-6.232,6.48c0.028,1.429-0.709,2.159-2.211,2.19
		c-0.913,0.019-1.874-0.409-2.884-1.285c-1.012-0.875-1.525-1.803-1.544-2.787c-0.064-3.234,0.955-5.916,3.061-8.04
		c2.103-2.125,4.659-3.218,7.664-3.279C85.102,47.289,90.292,54.554,90.585,69.289 M82.518,72.576
		c-0.023-1.156-0.838-1.718-2.449-1.685c-6.708,0.138-10.026,1.913-9.959,5.32c0.037,1.851,1.531,2.745,4.482,2.684
		c1.823-0.038,3.53-0.621,5.117-1.753C81.618,75.89,82.553,74.368,82.518,72.576"/>
	<path fill="none" stroke="#000000" stroke-width="1.5" stroke-miterlimit="10" d="M90.585,69.289
		c0.148,7.453,0.036,12.717-0.332,15.789c-0.234,1.795-1.342,2.714-3.327,2.756c-3.004,0.061-4.379-1.53-4.121-4.771
		c-2.656,1.441-5.431,2.192-8.329,2.252c-2.79,0.057-5.46-0.639-8.012-2.09c-3.041-1.73-4.587-3.982-4.643-6.756
		c-0.053-2.714,1.612-5.292,4.999-7.732c3.069-2.201,5.973-3.332,8.709-3.387l6.84-0.141l-0.041-2.064
		c-0.066-6.021-1.789-8.998-5.168-8.928c-4.239,0.087-6.317,2.247-6.232,6.48c0.028,1.429-0.709,2.159-2.211,2.19
		c-0.913,0.019-1.874-0.409-2.884-1.285c-1.012-0.875-1.525-1.803-1.544-2.787c-0.064-3.234,0.955-5.916,3.061-8.04
		c2.103-2.125,4.659-3.218,7.664-3.279C85.102,47.289,90.292,54.554,90.585,69.289z M82.518,72.576
		c-0.023-1.156-0.838-1.718-2.449-1.685c-6.708,0.138-10.026,1.913-9.959,5.32c0.037,1.851,1.531,2.745,4.482,2.684
		c1.823-0.038,3.53-0.621,5.117-1.753C81.618,75.89,82.553,74.368,82.518,72.576z"/>
	<path d="M126.436,86.802c-2.007,1.659-3.601,2.502-4.78,2.527c-1.557,0.032-3.845-1.656-6.863-5.062
		c-2.142-2.386-4.256-4.797-6.343-7.241c-1.211-1.477-3.13-3.547-5.759-6.21l-0.238,0.177l0.151,7.627
		c0.009,0.464,0.197,1.139,0.563,2.028c0.367,0.888,0.556,1.591,0.566,2.112c0.017,0.81-0.36,1.525-1.125,2.148
		c-0.767,0.622-1.551,0.943-2.356,0.959c-1.396,0.029-2.559-0.439-3.49-1.402c-0.933-0.964-1.412-2.197-1.442-3.7l-0.227-11.441
		c-0.014-0.694,0.045-1.749,0.178-3.169c0.133-1.419,0.193-2.475,0.179-3.169L94.988,39.67c-0.07-3.523-0.351-6.352-0.838-8.481
		c-0.218-0.978-0.331-1.728-0.342-2.248c-0.022-1.098,0.575-2.093,1.793-2.985c1.056-0.831,2.121-1.258,3.194-1.279
		c0.805-0.018,1.684,0.299,2.636,0.942c0.951,0.646,1.436,1.373,1.452,2.182c0.004,0.23-0.151,1.044-0.467,2.437
		c-0.315,1.394-0.445,3.536-0.387,6.424c0.019,0.925,0.084,8.642,0.202,23.15c0.21-0.235,3.062-3.157,8.555-8.762
		c4.54-4.717,7.214-7.084,8.021-7.101c2.854-0.059,4.265,1.79,4.233,5.55l0.017,0.866c-2.291,1.492-5.237,3.836-8.843,7.032
		c-4.561,3.967-6.827,6.587-6.803,7.858c0.002,0.117,1.493,1.906,4.473,5.372c2.814,3.294,4.579,5.339,5.297,6.133
		c3.305,3.575,6.373,5.997,9.2,7.269L126.436,86.802z"/>
	<path fill="none" stroke="#000000" stroke-width="1.5" stroke-miterlimit="10" d="M126.436,86.802
		c-2.007,1.659-3.601,2.502-4.78,2.527c-1.557,0.032-3.845-1.656-6.863-5.062c-2.142-2.386-4.256-4.797-6.343-7.241
		c-1.211-1.477-3.13-3.547-5.759-6.21l-0.238,0.177l0.151,7.627c0.009,0.464,0.197,1.139,0.563,2.028
		c0.367,0.888,0.556,1.591,0.566,2.112c0.017,0.81-0.36,1.525-1.125,2.148c-0.767,0.622-1.551,0.943-2.356,0.959
		c-1.396,0.029-2.559-0.439-3.49-1.402c-0.933-0.964-1.412-2.197-1.442-3.7l-0.227-11.441c-0.014-0.694,0.045-1.749,0.178-3.169
		c0.133-1.419,0.193-2.475,0.179-3.169L94.988,39.67c-0.07-3.523-0.351-6.352-0.838-8.481c-0.218-0.978-0.331-1.728-0.342-2.248
		c-0.022-1.098,0.575-2.093,1.793-2.985c1.056-0.831,2.121-1.258,3.194-1.279c0.805-0.018,1.684,0.299,2.636,0.942
		c0.951,0.646,1.436,1.373,1.452,2.182c0.004,0.23-0.151,1.044-0.467,2.437c-0.315,1.394-0.445,3.536-0.387,6.424
		c0.019,0.925,0.084,8.642,0.202,23.15c0.21-0.235,3.062-3.157,8.555-8.762c4.54-4.717,7.214-7.084,8.021-7.101
		c2.854-0.059,4.265,1.79,4.233,5.55l0.017,0.866c-2.291,1.492-5.237,3.836-8.843,7.032c-4.561,3.967-6.827,6.587-6.803,7.858
		c0.002,0.117,1.493,1.906,4.473,5.372c2.814,3.294,4.579,5.339,5.297,6.133c3.305,3.575,6.373,5.997,9.2,7.269L126.436,86.802z"/>
	<path d="M135.877,38.396c0.025,1.272-0.357,2.319-1.146,3.145c-0.789,0.826-1.774,1.25-2.954,1.274
		c-1.396,0.029-2.706-0.464-3.935-1.479c-1.228-1.016-1.856-2.274-1.886-3.777c-0.025-1.271,0.369-2.32,1.186-3.146
		c0.815-0.826,1.839-1.252,3.075-1.278c1.448-0.03,2.746,0.451,3.893,1.438C135.257,35.562,135.847,36.835,135.877,38.396"/>
	<path fill="none" stroke="#000000" stroke-width="1.5" stroke-miterlimit="10" d="M135.877,38.396
		c0.025,1.272-0.357,2.319-1.146,3.145c-0.789,0.826-1.774,1.25-2.954,1.274c-1.396,0.029-2.706-0.464-3.935-1.479
		c-1.228-1.016-1.856-2.274-1.886-3.777c-0.025-1.271,0.369-2.32,1.186-3.146c0.815-0.826,1.839-1.252,3.075-1.278
		c1.448-0.03,2.746,0.451,3.893,1.438C135.257,35.562,135.847,36.835,135.877,38.396z"/>
	<path d="M136.215,52.188c0.021,1.04-0.164,2.518-0.556,4.435c-0.392,1.915-0.576,3.393-0.556,4.434l0.355,17.855
		c0.021,1.099,0.377,2.826,1.068,5.181c-0.786,1.346-1.667,2.029-2.642,2.049c-3.413,0.071-5.319-1.712-5.716-5.346
		c-0.671-6.75-1.04-11.828-1.107-15.238c-0.114-5.722,0.005-10.521,0.359-14.402c-0.006-0.288-0.012-0.577-0.018-0.868
		c-0.021-1.04,0.713-1.575,2.202-1.605c1.328-0.027,2.663,0.236,4.004,0.785C135.322,50.068,136.191,50.975,136.215,52.188"/>
	<path fill="none" stroke="#000000" stroke-width="1.5" stroke-miterlimit="10" d="M136.215,52.188
		c0.021,1.04-0.164,2.518-0.556,4.435c-0.392,1.915-0.576,3.393-0.556,4.434l0.355,17.855c0.021,1.099,0.377,2.826,1.068,5.181
		c-0.786,1.346-1.667,2.029-2.642,2.049c-3.413,0.071-5.319-1.712-5.716-5.346c-0.671-6.75-1.04-11.828-1.107-15.238
		c-0.114-5.722,0.005-10.521,0.359-14.402c-0.006-0.288-0.012-0.577-0.018-0.868c-0.021-1.04,0.713-1.575,2.202-1.605
		c1.328-0.027,2.663,0.236,4.004,0.785C135.322,50.068,136.191,50.975,136.215,52.188z"/>
	<path d="M167.607,82.662c-0.778,1.345-1.759,2.03-2.938,2.055c-0.913,0.019-2.426-0.529-4.541-1.641l-0.021-1.041
		c-0.025-1.271-0.036-3.149-0.031-5.636c0.003-2.484-0.005-4.306-0.028-5.462c-0.245-12.365-2.076-18.514-5.489-18.443
		c-0.962,0.02-2.039,0.852-3.233,2.493c-3.689,5.048-5.464,11.069-5.325,18.061c0.019,0.983,0.222,2.437,0.609,4.366
		c0.387,1.929,0.591,3.383,0.611,4.366c0.016,0.81-0.321,1.481-1.008,2.015c-0.687,0.535-1.432,0.811-2.238,0.827
		c-3.218,0.066-4.872-2.097-4.958-6.488l-0.36-18.116c-0.009-0.462,0.03-1.142,0.121-2.041c0.09-0.898,0.13-1.577,0.12-2.04
		c-0.013-0.694-0.128-1.702-0.341-3.028c-0.215-1.325-0.328-2.305-0.341-2.941c-0.018-0.925,0.46-1.815,1.437-2.675
		c0.975-0.856,1.866-1.295,2.671-1.312c1.179-0.024,2.401,0.674,3.663,2.092l-0.172,3.472c1.917-3.449,4.325-5.205,7.222-5.265
		c1.877-0.038,3.877,0.615,5.997,1.959c2.121,1.343,3.681,2.872,4.681,4.585c2.286,4.347,3.501,10.104,3.643,17.268L167.607,82.662z
		"/>
	<path fill="none" stroke="#000000" stroke-width="1.5" stroke-miterlimit="10" d="M167.607,82.662
		c-0.778,1.345-1.759,2.03-2.938,2.055c-0.913,0.019-2.426-0.529-4.541-1.641l-0.021-1.041c-0.025-1.271-0.036-3.149-0.031-5.636
		c0.003-2.484-0.005-4.306-0.028-5.462c-0.245-12.365-2.076-18.514-5.489-18.443c-0.962,0.02-2.039,0.852-3.233,2.493
		c-3.689,5.048-5.464,11.069-5.325,18.061c0.019,0.983,0.222,2.437,0.609,4.366c0.387,1.929,0.591,3.383,0.611,4.366
		c0.016,0.81-0.321,1.481-1.008,2.015c-0.687,0.535-1.432,0.811-2.238,0.827c-3.218,0.066-4.872-2.097-4.958-6.488l-0.36-18.116
		c-0.009-0.462,0.03-1.142,0.121-2.041c0.09-0.898,0.13-1.577,0.12-2.04c-0.013-0.694-0.128-1.702-0.341-3.028
		c-0.215-1.325-0.328-2.305-0.341-2.941c-0.018-0.925,0.46-1.815,1.437-2.675c0.975-0.856,1.866-1.295,2.671-1.312
		c1.179-0.024,2.401,0.674,3.663,2.092l-0.172,3.472c1.917-3.449,4.325-5.205,7.222-5.265c1.877-0.038,3.877,0.615,5.997,1.959
		c2.121,1.343,3.681,2.872,4.681,4.585c2.286,4.347,3.501,10.104,3.643,17.268L167.607,82.662z"/>
	<path d="M198.751,56.874c-0.079,1.448-0.377,3.997-0.895,7.649c-0.475,3.191-0.691,5.737-0.654,7.645
		c0.034,1.734,0.167,4.332,0.396,7.796c0.229,3.464,0.362,6.062,0.396,7.797c0.07,3.581-0.199,6.246-0.807,7.992
		c-0.708,2.211-2.094,4.018-4.159,5.419c-2.066,1.399-4.225,2.125-6.479,2.172c-2.361,0.048-5.298-0.585-8.813-1.902
		c-4.217-1.532-6.344-3.279-6.384-5.244c-0.051-2.543,1.024-3.836,3.224-3.882c1.019-0.021,1.722,0.282,2.112,0.911
		c0.72,1.141,1.203,1.824,1.449,2.051c0.247,0.225,1.123,0.482,2.632,0.77c1.507,0.286,2.557,0.425,3.148,0.412
		c4.828-0.099,7.178-3.414,7.049-9.943c-0.039-1.907-0.151-3.523-0.338-4.849c-2.266,2.185-5.007,3.311-8.225,3.376
		c-1.343,0.028-2.853-0.346-4.532-1.119c-1.679-0.776-2.958-1.703-3.838-2.784c-1.706-2.045-2.598-5.119-2.68-9.224
		c-0.098-4.91,0.841-10.335,2.817-16.272c2.432-7.275,5.499-10.954,9.201-11.029c2.253-0.046,4.42,1.037,6.505,3.249
		c1.544,2.107,3.088,4.185,4.632,6.234c0.441,0.57,1.122,0.037,2.042,0.479C197.69,55.136,198.424,56.593,198.751,56.874
		 M190.726,62.243c-0.017-0.867-3.368-10.077-6.478-10.014c-1.771,0.037-3.193,2.754-4.267,8.152
		c-0.776,4.122-1.135,7.685-1.076,10.689c0.113,5.664,1.537,8.465,4.273,8.409c2.576-0.053,4.569-2.348,5.982-6.886
		C190.271,69.102,190.794,65.653,190.726,62.243"/>
	<path fill="none" stroke="#000000" stroke-width="1.5" stroke-miterlimit="10" d="M198.751,56.874
		c-0.079,1.448-0.377,3.997-0.895,7.649c-0.475,3.191-0.691,5.737-0.654,7.645c0.034,1.734,0.167,4.332,0.396,7.796
		c0.229,3.464,0.362,6.062,0.396,7.797c0.07,3.581-0.199,6.246-0.807,7.992c-0.708,2.211-2.094,4.018-4.159,5.419
		c-2.066,1.399-4.225,2.125-6.479,2.172c-2.361,0.048-5.298-0.585-8.813-1.902c-4.217-1.532-6.344-3.279-6.384-5.244
		c-0.051-2.543,1.024-3.836,3.224-3.882c1.019-0.021,1.722,0.282,2.112,0.911c0.72,1.141,1.203,1.824,1.449,2.051
		c0.247,0.225,1.123,0.482,2.632,0.77c1.507,0.286,2.557,0.425,3.148,0.412c4.828-0.099,7.178-3.414,7.049-9.943
		c-0.039-1.907-0.151-3.523-0.338-4.849c-2.266,2.185-5.007,3.311-8.225,3.376c-1.343,0.028-2.853-0.346-4.532-1.119
		c-1.679-0.776-2.958-1.703-3.838-2.784c-1.706-2.045-2.598-5.119-2.68-9.224c-0.098-4.91,0.841-10.335,2.817-16.272
		c2.432-7.275,5.499-10.954,9.201-11.029c2.253-0.046,4.42,1.037,6.505,3.249c1.544,2.107,3.088,4.185,4.632,6.234
		c0.441,0.57,1.122,0.037,2.042,0.479C197.69,55.136,198.424,56.593,198.751,56.874z M190.726,62.243
		c-0.017-0.867-3.368-10.077-6.478-10.014c-1.771,0.037-3.193,2.754-4.267,8.152c-0.776,4.122-1.135,7.685-1.076,10.689
		c0.113,5.664,1.537,8.465,4.273,8.409c2.576-0.053,4.569-2.348,5.982-6.886C190.271,69.102,190.794,65.653,190.726,62.243z"/>
	<path d="M204.287,16.266c-0.073-0.747,0.539-1.557,1.287-1.503c11.855,0.868,36.327-0.029,48.495-1.763
		c0.742-0.105,1.287,0.538,1.287,1.181v18.66c0,0.75-0.664,1.223-1.395,1.395c-6.429,1.505-27.259,1.763-27.259,1.763
		c-0.645,0-1.18,0.429-1.18,1.181v6.434c0,0.536,0.322,0.964,1.072,0.964l11.922-0.866c0.537,0,1.179,0.536,1.179,1.071
		l-3.976,19.413c0,0.642-0.536,1.177-1.287,1.177l-7.839,0.867c-0.537,0-1.072,0.751-1.072,1.396l1.732,26.059
		c0,0.966-0.536,1.502-1.394,1.502h-20.394c-0.535,0-1.274-0.65-1.179-1.394C206.816,74.104,206.167,35.556,204.287,16.266"/>
	<path fill="none" stroke="#000000" stroke-width="3" stroke-miterlimit="10" d="M204.287,16.266
		c-0.073-0.747,0.539-1.557,1.287-1.503c11.855,0.868,36.327-0.029,48.495-1.763c0.742-0.105,1.287,0.538,1.287,1.181v18.66
		c0,0.75-0.664,1.223-1.395,1.395c-6.429,1.505-27.259,1.763-27.259,1.763c-0.645,0-1.18,0.429-1.18,1.181v6.434
		c0,0.536,0.322,0.964,1.072,0.964l11.922-0.866c0.537,0,1.179,0.536,1.179,1.071l-3.976,19.413c0,0.642-0.536,1.177-1.287,1.177
		l-7.839,0.867c-0.537,0-1.072,0.751-1.072,1.396l1.732,26.059c0,0.966-0.536,1.502-1.394,1.502h-20.394
		c-0.535,0-1.274-0.65-1.179-1.394C206.816,74.104,206.167,35.556,204.287,16.266z"/>
	<path d="M264.455,49.949c-1.883-20.023,3.114-30.913,17.042-33.542c14.844-2.802,25.054,8.327,27.817,22.966
		c0.518,2.746,0.576,3.05-0.34,3.223l-16.759,4.18c-0.914,0.172-2.217-0.446-2.212-1.688c0.01-2.765,0.13-4.881-0.374-6.403
		c-0.731-2.211-3.93-1.695-4.744-1.542c-0.813,0.153-1.281,0.998-1.281,2.137c0,7.779,2.786,23.38,5.969,31.62
		c0.374,0.965,1.038,1.593,1.953,1.42c1.016-0.192,3.779-0.465,4.034-2.22c0.381-2.632-0.811-6.464-2.775-10.268
		c-0.285-0.552,0.119-1.602,0.951-1.655l17.434-2.832c0.508-0.096,0.891,0.253,0.967,0.66c4.626,24.502-3.846,34.84-16.656,37.259
		c-14.132,2.669-22.315-6.924-26.502-21.131C267.305,66.45,264.98,55.535,264.455,49.949"/>
	<path fill="none" stroke="#000000" stroke-width="3" stroke-miterlimit="10" d="M264.455,49.949
		c-1.883-20.023,3.114-30.913,17.042-33.542c14.844-2.802,25.054,8.327,27.817,22.966c0.518,2.746,0.576,3.05-0.34,3.223
		l-16.759,4.18c-0.914,0.172-2.217-0.446-2.212-1.688c0.01-2.765,0.13-4.881-0.374-6.403c-0.731-2.211-3.93-1.695-4.744-1.542
		c-0.813,0.153-1.281,0.998-1.281,2.137c0,7.779,2.786,23.38,5.969,31.62c0.374,0.965,1.038,1.593,1.953,1.42
		c1.016-0.192,3.779-0.465,4.034-2.22c0.381-2.632-0.811-6.464-2.775-10.268c-0.285-0.552,0.119-1.602,0.951-1.655l17.434-2.832
		c0.508-0.096,0.891,0.253,0.967,0.66c4.626,24.502-3.846,34.84-16.656,37.259c-14.132,2.669-22.315-6.924-26.502-21.131
		C267.305,66.45,264.98,55.535,264.455,49.949z"/>
	<path d="M373.762,40.325c-0.646-0.137-1.008-0.552-1.043-1.461c-0.098-2.725-2.637-4.863-4.347-4.567
		c-1.087,0.188-1.801,0.52-2.03,1.599c-0.73,3.452,3.517,8.406,9.05,14.198c6.005,6.229,9.646,15.112,7.955,23.091
		c-3.059,14.452-14.13,24.165-28.257,21.173c-16.391-3.471-22.454-14.079-19.502-28.432c0.111-0.54,0.659-0.986,1.522-0.804
		c0,0,9.107,1.785,15.933,0.096c0.749-0.186,1.094,0.682,0.998,1.675c-0.483,4.404,1.193,7.017,3.793,6.525
		c7.537-1.426,0.152-11.421-7.267-18.892c-6.684-6.731-7.839-16.195-6.286-23.527c2.329-10.999,13.059-21.235,27.509-18.176
		c14.452,3.061,22.125,15.158,19.407,27.992c-0.16,0.755-0.76,1.428-1.59,1.127C383.808,39.845,373.762,40.325,373.762,40.325"/>
	<path fill="none" stroke="#000000" stroke-width="3" stroke-miterlimit="10" d="M373.762,40.325
		c-0.646-0.137-1.008-0.552-1.043-1.461c-0.098-2.725-2.637-4.863-4.347-4.567c-1.087,0.188-1.801,0.52-2.03,1.599
		c-0.73,3.452,3.517,8.406,9.05,14.198c6.005,6.229,9.646,15.112,7.955,23.091c-3.059,14.452-14.13,24.165-28.257,21.173
		c-16.391-3.471-22.454-14.079-19.502-28.432c0.111-0.54,0.659-0.986,1.522-0.804c0,0,9.107,1.785,15.933,0.096
		c0.749-0.186,1.094,0.682,0.998,1.675c-0.483,4.404,1.193,7.017,3.793,6.525c7.537-1.426,0.152-11.421-7.267-18.892
		c-6.684-6.731-7.839-16.195-6.286-23.527c2.329-10.999,13.059-21.235,27.509-18.176c14.452,3.061,22.125,15.158,19.407,27.992
		c-0.16,0.755-0.76,1.428-1.59,1.127C383.808,39.845,373.762,40.325,373.762,40.325z"/>
	<path fill="#8FB13E" d="M203.451,14.595c-0.074-0.748,0.539-1.557,1.287-1.503c11.854,0.868,36.327-0.029,48.494-1.763
		c0.742-0.105,1.287,0.538,1.287,1.181V31.17c0,0.75-0.664,1.223-1.395,1.394c-6.429,1.505-27.259,1.763-27.259,1.763
		c-0.645,0-1.18,0.429-1.18,1.18v6.434c0,0.537,0.322,0.965,1.073,0.965l11.921-0.867c0.538,0,1.179,0.536,1.179,1.072
		l-3.975,19.413c0,0.643-0.535,1.178-1.287,1.178l-7.839,0.867c-0.538,0-1.073,0.751-1.073,1.396l1.733,26.059
		c0,0.966-0.536,1.502-1.394,1.502H204.63c-0.536,0-1.275-0.65-1.179-1.394C205.98,72.433,205.331,33.884,203.451,14.595"/>
	<path fill="none" stroke="#FFFFFF" stroke-width="3" stroke-miterlimit="10" d="M203.451,14.595
		c-0.074-0.748,0.539-1.557,1.287-1.503c11.854,0.868,36.327-0.029,48.494-1.763c0.742-0.105,1.287,0.538,1.287,1.181V31.17
		c0,0.75-0.664,1.223-1.395,1.394c-6.429,1.505-27.259,1.763-27.259,1.763c-0.645,0-1.18,0.429-1.18,1.18v6.434
		c0,0.537,0.322,0.965,1.073,0.965l11.921-0.867c0.538,0,1.179,0.536,1.179,1.072l-3.975,19.413c0,0.643-0.535,1.178-1.287,1.178
		l-7.839,0.867c-0.538,0-1.073,0.751-1.073,1.396l1.733,26.059c0,0.966-0.536,1.502-1.394,1.502H204.63
		c-0.536,0-1.275-0.65-1.179-1.394C205.98,72.433,205.331,33.884,203.451,14.595z"/>
	<path fill="#8FB13E" d="M263.619,48.278c-1.883-20.024,3.114-30.913,17.043-33.542c14.843-2.802,25.053,8.327,27.817,22.967
		c0.518,2.745,0.576,3.049-0.34,3.222l-16.76,4.18c-0.914,0.172-2.217-0.447-2.212-1.688c0.01-2.765,0.13-4.882-0.374-6.404
		c-0.73-2.211-3.929-1.695-4.743-1.541c-0.813,0.153-1.281,0.997-1.281,2.136c0.001,7.78,2.787,23.381,5.969,31.62
		c0.374,0.966,1.038,1.593,1.953,1.421c1.016-0.192,3.779-0.466,4.034-2.22c0.381-2.632-0.812-6.464-2.775-10.268
		c-0.285-0.553,0.119-1.602,0.951-1.654l17.434-2.833c0.509-0.096,0.89,0.253,0.968,0.66c4.625,24.501-3.847,34.841-16.656,37.259
		c-14.133,2.669-22.315-6.924-26.502-21.132C266.469,64.778,264.144,53.863,263.619,48.278"/>
	<path fill="none" stroke="#FFFFFF" stroke-width="3" stroke-miterlimit="10" d="M263.619,48.278
		c-1.883-20.024,3.114-30.913,17.043-33.542c14.843-2.802,25.053,8.327,27.817,22.967c0.518,2.745,0.576,3.049-0.34,3.222
		l-16.76,4.18c-0.914,0.172-2.217-0.447-2.212-1.688c0.01-2.765,0.13-4.882-0.374-6.404c-0.73-2.211-3.929-1.695-4.743-1.541
		c-0.813,0.153-1.281,0.997-1.281,2.136c0.001,7.78,2.787,23.381,5.969,31.62c0.374,0.966,1.038,1.593,1.953,1.421
		c1.016-0.192,3.779-0.466,4.034-2.22c0.381-2.632-0.812-6.464-2.775-10.268c-0.285-0.553,0.119-1.602,0.951-1.654l17.434-2.833
		c0.509-0.096,0.89,0.253,0.968,0.66c4.625,24.501-3.847,34.841-16.656,37.259c-14.133,2.669-22.315-6.924-26.502-21.132
		C266.469,64.778,264.144,53.863,263.619,48.278z"/>
	<path d="M263.853,38.069c0.513,0.039,0.847,0.506,0.882,1.026c0,0,6.279,41.156,5.994,54.922c-0.018,0.823-0.341,1.599-1.147,1.538
		l-11.885-0.054c-0.44-0.033-0.95-0.36-0.899-0.804c0.695-5.987-0.643-11.951-0.643-11.951c-0.045-0.372-0.322-0.614-0.689-0.642
		l-3.962-0.296c-0.293-0.022-0.608,0.249-0.714,0.683c0,0-0.903,9.184-2.201,12.352c-0.198,0.482-0.648,0.763-1.015,0.736
		l-12.941-0.07c-0.66-0.05-1.054-0.613-0.787-1.313c5.191-13.553,14.627-54.664,14.627-54.664c0.101-0.363,0.506-0.849,0.947-0.816
		L263.853,38.069z M255.203,63.284c-0.236-0.023-2.915,7.362-4.497,10.349c-0.177,0.335,2.99-0.831,3.383-0.801
		c2.514,0.188,3.123,2.026,3.094,1.36C257.183,74.192,256.414,63.4,255.203,63.284"/>
	<path fill="none" stroke="#000000" stroke-width="3" stroke-miterlimit="10" d="M263.853,38.069
		c0.513,0.039,0.847,0.506,0.882,1.026c0,0,6.279,41.156,5.994,54.922c-0.018,0.823-0.341,1.599-1.147,1.538l-11.885-0.054
		c-0.44-0.033-0.95-0.36-0.899-0.804c0.695-5.987-0.643-11.951-0.643-11.951c-0.045-0.372-0.322-0.614-0.689-0.642l-3.962-0.296
		c-0.293-0.022-0.608,0.249-0.714,0.683c0,0-0.903,9.184-2.201,12.352c-0.198,0.482-0.648,0.763-1.015,0.736l-12.941-0.07
		c-0.66-0.05-1.054-0.613-0.787-1.313c5.191-13.553,14.627-54.664,14.627-54.664c0.101-0.363,0.506-0.849,0.947-0.816
		L263.853,38.069z M255.203,63.284c-0.236-0.023-2.915,7.362-4.497,10.349c-0.177,0.335,2.99-0.831,3.383-0.801
		c2.514,0.188,3.123,2.026,3.094,1.36C257.183,74.192,256.414,63.4,255.203,63.284z"/>
	<path fill="#8FB13E" d="M262.181,36.397c0.514,0.039,0.848,0.507,0.882,1.026c0,0,6.28,41.156,5.994,54.922
		c-0.017,0.822-0.341,1.598-1.147,1.537l-11.885-0.054c-0.44-0.033-0.95-0.361-0.899-0.804c0.694-5.987-0.643-11.951-0.643-11.951
		c-0.045-0.372-0.323-0.614-0.69-0.642l-3.961-0.296c-0.293-0.022-0.608,0.25-0.714,0.683c0,0-0.903,9.184-2.202,12.353
		c-0.198,0.481-0.648,0.763-1.014,0.736l-12.941-0.071c-0.66-0.05-1.054-0.613-0.787-1.313
		c5.191-13.553,14.627-54.664,14.627-54.664c0.101-0.363,0.507-0.849,0.947-0.816L262.181,36.397z M253.531,61.612
		c-0.236-0.023-2.915,7.363-4.497,10.349c-0.177,0.335,2.99-0.83,3.383-0.8c2.514,0.188,3.122,2.025,3.093,1.36
		C255.511,72.521,254.742,61.729,253.531,61.612"/>
	<path fill="none" stroke="#FFFFFF" stroke-width="3" stroke-miterlimit="10" d="M262.181,36.397
		c0.514,0.039,0.848,0.507,0.882,1.026c0,0,6.28,41.156,5.994,54.922c-0.017,0.822-0.341,1.598-1.147,1.537l-11.885-0.054
		c-0.44-0.033-0.95-0.361-0.899-0.804c0.694-5.987-0.643-11.951-0.643-11.951c-0.045-0.372-0.323-0.614-0.69-0.642l-3.961-0.296
		c-0.293-0.022-0.608,0.25-0.714,0.683c0,0-0.903,9.184-2.202,12.353c-0.198,0.481-0.648,0.763-1.014,0.736l-12.941-0.071
		c-0.66-0.05-1.054-0.613-0.787-1.313c5.191-13.553,14.627-54.664,14.627-54.664c0.101-0.363,0.507-0.849,0.947-0.816
		L262.181,36.397z M253.531,61.612c-0.236-0.023-2.915,7.363-4.497,10.349c-0.177,0.335,2.99-0.83,3.383-0.8
		c2.514,0.188,3.122,2.025,3.093,1.36C255.511,72.521,254.742,61.729,253.531,61.612z"/>
	<path fill="#8FB13E" d="M372.926,38.654c-0.646-0.137-1.008-0.552-1.043-1.461c-0.098-2.725-2.637-4.863-4.347-4.566
		c-1.087,0.188-1.801,0.52-2.029,1.599c-0.73,3.451,3.517,8.406,9.05,14.197c6.005,6.229,9.646,15.112,7.955,23.092
		c-3.06,14.452-14.13,24.164-28.257,21.174c-16.392-3.472-22.455-14.08-19.502-28.432c0.111-0.54,0.66-0.986,1.522-0.804
		c0,0,9.107,1.785,15.933,0.095c0.749-0.186,1.094,0.683,0.998,1.675c-0.482,4.406,1.193,7.017,3.793,6.525
		c7.537-1.427,0.151-11.421-7.267-18.893c-6.684-6.73-7.839-16.193-6.287-23.527c2.329-10.999,13.06-21.234,27.509-18.175
		c14.453,3.06,22.125,15.158,19.407,27.992c-0.16,0.755-0.761,1.428-1.59,1.127C382.972,38.173,372.926,38.654,372.926,38.654"/>
	<path fill="none" stroke="#FFFFFF" stroke-width="3" stroke-miterlimit="10" d="M372.926,38.654
		c-0.646-0.137-1.008-0.552-1.043-1.461c-0.098-2.725-2.637-4.863-4.347-4.566c-1.087,0.188-1.801,0.52-2.029,1.599
		c-0.73,3.451,3.517,8.406,9.05,14.197c6.005,6.229,9.646,15.112,7.955,23.092c-3.06,14.452-14.13,24.164-28.257,21.174
		c-16.392-3.472-22.455-14.08-19.502-28.432c0.111-0.54,0.66-0.986,1.522-0.804c0,0,9.107,1.785,15.933,0.095
		c0.749-0.186,1.094,0.683,0.998,1.675c-0.482,4.406,1.193,7.017,3.793,6.525c7.537-1.427,0.151-11.421-7.267-18.893
		c-6.684-6.73-7.839-16.193-6.287-23.527c2.329-10.999,13.06-21.234,27.509-18.175c14.453,3.06,22.125,15.158,19.407,27.992
		c-0.16,0.755-0.761,1.428-1.59,1.127C382.972,38.173,372.926,38.654,372.926,38.654z"/>
	<path d="M310.509,20.295c-0.033-0.485,0.525-1.143,1.079-1.025c9.656,2.062,23.345,1.396,30.661,0.032
		c0.477-0.089,0.977,0.466,0.785,0.911c-1.689,3.918-3.667,7.986-4.214,14.368c-0.042,0.484-0.426,0.799-0.911,0.786l-9.708,0.636
		c-0.324-0.009-0.573,0.227-0.582,0.55l-0.12,4.529c-0.008,0.325,0.309,0.575,0.552,0.581l7.258-0.633
		c0.323,0.008,0.559,0.258,0.551,0.581l-1.223,14.687c-0.01,0.404-0.342,0.719-0.666,0.711l-6.585,0.663
		c-0.324-0.009-0.572,0.227-0.583,0.631l-0.125,4.771c-0.008,0.325,0.227,0.572,0.471,0.579c0,0,8.963,0.103,13.224-1.336
		c0.537-0.181,0.944,0.436,0.869,0.833c-0.994,5.234-0.501,10.272,1.274,15.109c0.167,0.457-0.432,0.799-0.914,0.867
		c-7.129,1.013-22.896,1.349-30.691,0.841c-0.485-0.032-0.992-0.524-0.862-1.074C315.194,57.053,311.499,34.737,310.509,20.295"/>
	<path fill="none" stroke="#000000" stroke-width="3" stroke-miterlimit="10" d="M310.509,20.295
		c-0.033-0.485,0.525-1.143,1.079-1.025c9.656,2.062,23.345,1.396,30.661,0.032c0.477-0.089,0.977,0.466,0.785,0.911
		c-1.689,3.918-3.667,7.986-4.214,14.368c-0.042,0.484-0.426,0.799-0.911,0.786l-9.708,0.636c-0.324-0.009-0.573,0.227-0.582,0.55
		l-0.12,4.529c-0.008,0.325,0.309,0.575,0.552,0.581l7.258-0.633c0.323,0.008,0.559,0.258,0.551,0.581l-1.223,14.687
		c-0.01,0.404-0.342,0.719-0.666,0.711l-6.585,0.663c-0.324-0.009-0.572,0.227-0.583,0.631l-0.125,4.771
		c-0.008,0.325,0.227,0.572,0.471,0.579c0,0,8.963,0.103,13.224-1.336c0.537-0.181,0.944,0.436,0.869,0.833
		c-0.994,5.234-0.501,10.272,1.274,15.109c0.167,0.457-0.432,0.799-0.914,0.867c-7.129,1.013-22.896,1.349-30.691,0.841
		c-0.485-0.032-0.992-0.524-0.862-1.074C315.194,57.053,311.499,34.737,310.509,20.295z"/>
	<path fill="#8FB13E" d="M309.672,18.623c-0.033-0.485,0.526-1.143,1.079-1.025c9.656,2.062,23.346,1.396,30.661,0.032
		c0.477-0.089,0.977,0.467,0.785,0.912c-1.689,3.918-3.667,7.986-4.215,14.369c-0.042,0.484-0.426,0.799-0.911,0.786l-9.708,0.636
		c-0.323-0.009-0.573,0.227-0.582,0.55l-0.12,4.529c-0.008,0.325,0.31,0.575,0.552,0.582l7.258-0.634
		c0.324,0.008,0.56,0.258,0.551,0.582l-1.223,14.686c-0.01,0.404-0.343,0.719-0.666,0.711L326.551,56
		c-0.324-0.009-0.573,0.227-0.583,0.631l-0.126,4.771c-0.008,0.325,0.228,0.572,0.471,0.579c0,0,8.964,0.103,13.224-1.335
		c0.537-0.182,0.943,0.435,0.869,0.833c-0.995,5.234-0.502,10.273,1.273,15.11c0.167,0.456-0.432,0.798-0.913,0.866
		c-7.129,1.013-22.896,1.349-30.691,0.841c-0.485-0.032-0.992-0.524-0.862-1.074C314.358,55.381,310.663,33.066,309.672,18.623"/>
	<path fill="none" stroke="#FFFFFF" stroke-width="3" stroke-miterlimit="10" d="M309.672,18.623
		c-0.033-0.485,0.526-1.143,1.079-1.025c9.656,2.062,23.346,1.396,30.661,0.032c0.477-0.089,0.977,0.467,0.785,0.912
		c-1.689,3.918-3.667,7.986-4.215,14.369c-0.042,0.484-0.426,0.799-0.911,0.786l-9.708,0.636c-0.323-0.009-0.573,0.227-0.582,0.55
		l-0.12,4.529c-0.008,0.325,0.31,0.575,0.552,0.582l7.258-0.634c0.324,0.008,0.56,0.258,0.551,0.582l-1.223,14.686
		c-0.01,0.404-0.343,0.719-0.666,0.711L326.551,56c-0.324-0.009-0.573,0.227-0.583,0.631l-0.126,4.771
		c-0.008,0.325,0.228,0.572,0.471,0.579c0,0,8.964,0.103,13.224-1.335c0.537-0.182,0.943,0.435,0.869,0.833
		c-0.995,5.234-0.502,10.273,1.273,15.11c0.167,0.456-0.432,0.798-0.913,0.866c-7.129,1.013-22.896,1.349-30.691,0.841
		c-0.485-0.032-0.992-0.524-0.862-1.074C314.358,55.381,310.663,33.066,309.672,18.623z"/>
	<path fill="#FFFFFF" d="M362.417,27.333c-0.376,1.462-1.866,2.343-3.329,1.967s-2.343-1.867-1.966-3.329
		c0.375-1.462,1.866-2.344,3.328-1.967C361.913,24.38,362.794,25.871,362.417,27.333"/>
	<path fill="#FFFFFF" d="M372.694,24.331c-0.513,1.995-2.546,3.195-4.541,2.682c-1.994-0.513-3.195-2.546-2.682-4.541
		c0.513-1.994,2.545-3.195,4.54-2.682C372.006,20.303,373.208,22.336,372.694,24.331"/>
	<path fill="#FFFFFF" d="M253.618,53.173c0,2.06-1.669,3.729-3.729,3.729c-2.059,0-3.728-1.669-3.728-3.729s1.669-3.729,3.728-3.729
		C251.949,49.444,253.618,51.113,253.618,53.173"/>
	<path fill="#FFFFFF" d="M261.204,55.162c0,1.51-1.225,2.734-2.735,2.734c-1.51,0-2.734-1.224-2.734-2.734s1.225-2.735,2.734-2.735
		C259.979,52.427,261.204,53.651,261.204,55.162"/>
	<path fill="#FFFFFF" d="M290.794,85.824c-1.214,0.899-2.926,0.645-3.825-0.569s-0.644-2.926,0.569-3.825
		c1.214-0.899,2.926-0.644,3.825,0.569C292.263,83.213,292.008,84.925,290.794,85.824"/>
	<path fill="#FFFFFF" d="M300.24,83.143c-1.214,0.899-2.926,0.645-3.825-0.569c-0.899-1.214-0.644-2.926,0.569-3.825
		c1.214-0.899,2.926-0.644,3.825,0.569C301.708,80.532,301.454,82.244,300.24,83.143"/>
	<path fill="#F16624" d="M60.39,27.813c0.016,0.81-0.212,1.479-0.685,2.009c-0.785,0.998-1.205,1.527-1.256,1.585
		c-0.311,0.585-0.603,2.094-0.876,4.528c-1.108,11.814-1.547,23.474-1.319,34.972c0.128,6.472,1.272,10.091,3.436,10.855
		l0.046,2.341c-0.615,1.457-1.594,2.201-2.935,2.229c-2.736,0.055-4.854-2.473-6.351-7.587c-1.091-3.62-1.677-7.423-1.756-11.411
		c-0.173-8.724-0.103-16.01,0.21-21.855c-1.472,6.794-2.968,13.618-4.492,20.469c-2.788,10.579-5.574,15.896-8.357,15.954
		c-3.157,0.064-6.001-2.967-8.531-9.102c-2.359-5.56-5.301-14.921-8.828-28.088c-0.244,3.937-0.323,7.957-0.243,12.058
		c0.169,8.494,0.498,14.644,0.989,18.45c0.065,0.693,0.386,1.799,0.96,3.318c0.575,1.521,0.872,2.713,0.889,3.581
		c0.038,1.907-1.419,2.891-4.369,2.952c-3.489,0.071-5.332-4.948-5.532-15.061c-0.081-4.103,0.011-10.233,0.278-18.39
		c0.268-8.156,0.361-14.257,0.282-18.303c-0.009-0.461-0.234-0.948-0.673-1.461c-0.44-0.51-0.665-0.995-0.673-1.458
		c-0.064-3.236,2.586-4.909,7.952-5.019c1.232-0.026,2.725,0.781,4.476,2.42c0.196,1.79,0.518,4.5,0.966,8.133
		c0.638,5.075,2.032,11.781,4.183,20.117c2.843,10.753,5.231,16.109,7.162,16.069c0.429-0.008,0.975-0.916,1.637-2.722
		c1.272-3.495,2.491-8.404,3.653-14.729c0.865-5.046,1.731-10.094,2.598-15.141c0.382-2.378,1.093-5.803,2.131-10.276
		c1.06-3.317,3.388-5.012,6.983-5.086c1.288-0.027,2.851,0.26,4.688,0.858C59.249,25.785,60.368,26.716,60.39,27.813"/>
	<path fill="none" stroke="#FFFFFF" stroke-width="1.5" stroke-miterlimit="10" d="M60.39,27.813
		c0.016,0.81-0.212,1.479-0.685,2.009c-0.785,0.998-1.205,1.527-1.256,1.585c-0.311,0.585-0.603,2.094-0.876,4.528
		c-1.108,11.814-1.547,23.474-1.319,34.972c0.128,6.472,1.272,10.091,3.436,10.855l0.046,2.341
		c-0.615,1.457-1.594,2.201-2.935,2.229c-2.736,0.055-4.854-2.473-6.351-7.587c-1.091-3.62-1.677-7.423-1.756-11.411
		c-0.173-8.724-0.103-16.01,0.21-21.855c-1.472,6.794-2.968,13.618-4.492,20.469c-2.788,10.579-5.574,15.896-8.357,15.954
		c-3.157,0.064-6.001-2.967-8.531-9.102c-2.359-5.56-5.301-14.921-8.828-28.088c-0.244,3.937-0.323,7.957-0.243,12.058
		c0.169,8.494,0.498,14.644,0.989,18.45c0.065,0.693,0.386,1.799,0.96,3.318c0.575,1.521,0.872,2.713,0.889,3.581
		c0.038,1.907-1.419,2.891-4.369,2.952c-3.489,0.071-5.332-4.948-5.532-15.061c-0.081-4.103,0.011-10.233,0.278-18.39
		c0.268-8.156,0.361-14.257,0.282-18.303c-0.009-0.461-0.234-0.948-0.673-1.461c-0.44-0.51-0.665-0.995-0.673-1.458
		c-0.064-3.236,2.586-4.909,7.952-5.019c1.232-0.026,2.725,0.781,4.476,2.42c0.196,1.79,0.518,4.5,0.966,8.133
		c0.638,5.075,2.032,11.781,4.183,20.117c2.843,10.753,5.231,16.109,7.162,16.069c0.429-0.008,0.975-0.916,1.637-2.722
		c1.272-3.495,2.491-8.404,3.653-14.729c0.865-5.046,1.731-10.094,2.598-15.141c0.382-2.378,1.093-5.803,2.131-10.276
		c1.06-3.317,3.388-5.012,6.983-5.086c1.288-0.027,2.851,0.26,4.688,0.858C59.249,25.785,60.368,26.716,60.39,27.813z"/>
	<path fill="#F16624" d="M89.764,67.647c0.148,7.453,0.036,12.717-0.332,15.789c-0.234,1.794-1.342,2.713-3.327,2.756
		c-3.004,0.061-4.378-1.53-4.121-4.771c-2.656,1.441-5.431,2.192-8.328,2.252c-2.791,0.057-5.461-0.64-8.012-2.09
		c-3.042-1.73-4.587-3.982-4.643-6.757c-0.053-2.714,1.612-5.292,5-7.732c3.069-2.201,5.972-3.331,8.708-3.387l6.84-0.141
		l-0.041-2.064c-0.067-6.021-1.789-8.998-5.169-8.928c-4.239,0.087-6.316,2.247-6.232,6.48c0.028,1.429-0.709,2.159-2.21,2.19
		c-0.913,0.019-1.874-0.409-2.884-1.285c-1.012-0.875-1.525-1.802-1.544-2.786c-0.064-3.235,0.955-5.916,3.061-8.04
		c2.103-2.125,4.659-3.218,7.665-3.28C84.281,45.646,89.471,52.911,89.764,67.647 M81.697,70.934
		c-0.023-1.156-0.838-1.718-2.449-1.686c-6.708,0.138-10.026,1.913-9.959,5.321c0.037,1.85,1.531,2.745,4.482,2.684
		c1.823-0.038,3.529-0.621,5.117-1.753C80.797,74.247,81.732,72.725,81.697,70.934"/>
	<path fill="none" stroke="#FFFFFF" stroke-width="1.5" stroke-miterlimit="10" d="M89.764,67.647
		c0.148,7.453,0.036,12.717-0.332,15.789c-0.234,1.794-1.342,2.713-3.327,2.756c-3.004,0.061-4.378-1.53-4.121-4.771
		c-2.656,1.441-5.431,2.192-8.328,2.252c-2.791,0.057-5.461-0.64-8.012-2.09c-3.042-1.73-4.587-3.982-4.643-6.757
		c-0.053-2.714,1.612-5.292,5-7.732c3.069-2.201,5.972-3.331,8.708-3.387l6.84-0.141l-0.041-2.064
		c-0.067-6.021-1.789-8.998-5.169-8.928c-4.239,0.087-6.316,2.247-6.232,6.48c0.028,1.429-0.709,2.159-2.21,2.19
		c-0.913,0.019-1.874-0.409-2.884-1.285c-1.012-0.875-1.525-1.802-1.544-2.786c-0.064-3.235,0.955-5.916,3.061-8.04
		c2.103-2.125,4.659-3.218,7.665-3.28C84.281,45.646,89.471,52.911,89.764,67.647z M81.697,70.934
		c-0.023-1.156-0.838-1.718-2.449-1.686c-6.708,0.138-10.026,1.913-9.959,5.321c0.037,1.85,1.531,2.745,4.482,2.684
		c1.823-0.038,3.529-0.621,5.117-1.753C80.797,74.247,81.732,72.725,81.697,70.934z"/>
	<path fill="#F16624" d="M125.615,85.16c-2.007,1.659-3.601,2.502-4.78,2.527c-1.557,0.032-3.845-1.656-6.863-5.062
		c-2.141-2.385-4.255-4.797-6.343-7.241c-1.211-1.477-3.13-3.547-5.759-6.21l-0.238,0.177l0.151,7.627
		c0.009,0.464,0.196,1.139,0.563,2.027c0.367,0.888,0.556,1.592,0.566,2.112c0.017,0.81-0.36,1.525-1.125,2.148
		c-0.767,0.623-1.551,0.943-2.356,0.959c-1.396,0.029-2.559-0.439-3.49-1.403c-0.932-0.964-1.412-2.196-1.442-3.699l-0.227-11.442
		c-0.014-0.694,0.045-1.749,0.178-3.169c0.133-1.419,0.193-2.475,0.179-3.169l-0.462-23.315c-0.07-3.524-0.351-6.353-0.838-8.481
		c-0.218-0.978-0.331-1.728-0.342-2.248c-0.022-1.098,0.575-2.093,1.793-2.984c1.056-0.831,2.121-1.258,3.195-1.28
		c0.805-0.017,1.683,0.299,2.636,0.943c0.951,0.646,1.437,1.373,1.452,2.182c0.004,0.23-0.151,1.043-0.468,2.437
		c-0.315,1.394-0.445,3.536-0.387,6.424c0.019,0.924,0.084,8.641,0.202,23.15c0.21-0.235,3.062-3.157,8.555-8.762
		c4.54-4.717,7.214-7.084,8.021-7.101c2.854-0.059,4.265,1.79,4.232,5.549l0.017,0.867c-2.29,1.492-5.237,3.836-8.843,7.032
		c-4.56,3.966-6.827,6.587-6.803,7.858c0.002,0.117,1.493,1.906,4.473,5.371c2.814,3.295,4.579,5.339,5.297,6.134
		c3.304,3.575,6.373,5.997,9.2,7.269L125.615,85.16z"/>
	<path fill="none" stroke="#FFFFFF" stroke-width="1.5" stroke-miterlimit="10" d="M125.615,85.16
		c-2.007,1.659-3.601,2.502-4.78,2.527c-1.557,0.032-3.845-1.656-6.863-5.062c-2.141-2.385-4.255-4.797-6.343-7.241
		c-1.211-1.477-3.13-3.547-5.759-6.21l-0.238,0.177l0.151,7.627c0.009,0.464,0.196,1.139,0.563,2.027
		c0.367,0.888,0.556,1.592,0.566,2.112c0.017,0.81-0.36,1.525-1.125,2.148c-0.767,0.623-1.551,0.943-2.356,0.959
		c-1.396,0.029-2.559-0.439-3.49-1.403c-0.932-0.964-1.412-2.196-1.442-3.699l-0.227-11.442c-0.014-0.694,0.045-1.749,0.178-3.169
		c0.133-1.419,0.193-2.475,0.179-3.169l-0.462-23.315c-0.07-3.524-0.351-6.353-0.838-8.481c-0.218-0.978-0.331-1.728-0.342-2.248
		c-0.022-1.098,0.575-2.093,1.793-2.984c1.056-0.831,2.121-1.258,3.195-1.28c0.805-0.017,1.683,0.299,2.636,0.943
		c0.951,0.646,1.437,1.373,1.452,2.182c0.004,0.23-0.151,1.043-0.468,2.437c-0.315,1.394-0.445,3.536-0.387,6.424
		c0.019,0.924,0.084,8.641,0.202,23.15c0.21-0.235,3.062-3.157,8.555-8.762c4.54-4.717,7.214-7.084,8.021-7.101
		c2.854-0.059,4.265,1.79,4.232,5.549l0.017,0.867c-2.29,1.492-5.237,3.836-8.843,7.032c-4.56,3.966-6.827,6.587-6.803,7.858
		c0.002,0.117,1.493,1.906,4.473,5.371c2.814,3.295,4.579,5.339,5.297,6.134c3.304,3.575,6.373,5.997,9.2,7.269L125.615,85.16z"/>
	<path fill="#F16624" d="M135.056,36.752c0.026,1.273-0.356,2.32-1.145,3.146c-0.789,0.827-1.774,1.251-2.954,1.275
		c-1.396,0.029-2.707-0.465-3.935-1.479c-1.227-1.015-1.856-2.273-1.886-3.777c-0.024-1.271,0.37-2.319,1.186-3.146
		c0.815-0.826,1.84-1.252,3.074-1.277c1.449-0.03,2.746,0.451,3.894,1.438C134.436,33.919,135.026,35.193,135.056,36.752
		 M134.573,48.903c0.021,1.04-0.165,2.518-0.556,4.435c-0.392,1.915-0.576,3.393-0.556,4.434l0.354,17.855
		c0.021,1.099,0.378,2.826,1.068,5.181c-0.786,1.346-1.667,2.029-2.643,2.049c-3.413,0.07-5.319-1.712-5.716-5.346
		c-0.671-6.75-1.04-11.828-1.107-15.238c-0.113-5.722,0.005-10.521,0.359-14.402c-0.006-0.288-0.012-0.577-0.017-0.868
		c-0.021-1.04,0.713-1.575,2.202-1.605c1.328-0.027,2.662,0.236,4.004,0.785C133.679,46.783,134.548,47.69,134.573,48.903"/>
	<path fill="none" stroke="#FFFFFF" stroke-width="1.5" stroke-miterlimit="10" d="M135.056,36.752
		c0.026,1.273-0.356,2.32-1.145,3.146c-0.789,0.827-1.774,1.251-2.954,1.275c-1.396,0.029-2.707-0.465-3.935-1.479
		c-1.227-1.015-1.856-2.273-1.886-3.777c-0.024-1.271,0.37-2.319,1.186-3.146c0.815-0.826,1.84-1.252,3.074-1.277
		c1.449-0.03,2.746,0.451,3.894,1.438C134.436,33.919,135.026,35.193,135.056,36.752z M134.573,48.903
		c0.021,1.04-0.165,2.518-0.556,4.435c-0.392,1.915-0.576,3.393-0.556,4.434l0.354,17.855c0.021,1.099,0.378,2.826,1.068,5.181
		c-0.786,1.346-1.667,2.029-2.643,2.049c-3.413,0.07-5.319-1.712-5.716-5.346c-0.671-6.75-1.04-11.828-1.107-15.238
		c-0.113-5.722,0.005-10.521,0.359-14.402c-0.006-0.288-0.012-0.577-0.017-0.868c-0.021-1.04,0.713-1.575,2.202-1.605
		c1.328-0.027,2.662,0.236,4.004,0.785C133.679,46.783,134.548,47.69,134.573,48.903z"/>
	<path fill="#F16624" d="M166.787,81.019c-0.779,1.345-1.759,2.03-2.938,2.055c-0.913,0.019-2.426-0.529-4.541-1.641l-0.021-1.04
		c-0.025-1.271-0.036-3.149-0.031-5.636c0.003-2.485-0.005-4.306-0.028-5.462c-0.246-12.365-2.076-18.514-5.49-18.443
		c-0.961,0.02-2.038,0.852-3.233,2.493c-3.689,5.048-5.464,11.069-5.326,18.061c0.019,0.982,0.222,2.437,0.609,4.366
		c0.387,1.928,0.591,3.383,0.611,4.366c0.016,0.81-0.321,1.481-1.007,2.016c-0.688,0.534-1.433,0.81-2.238,0.827
		c-3.218,0.066-4.872-2.096-4.959-6.488l-0.36-18.116c-0.009-0.462,0.03-1.142,0.121-2.041c0.089-0.898,0.129-1.578,0.12-2.04
		c-0.013-0.693-0.128-1.702-0.341-3.028c-0.215-1.324-0.328-2.305-0.341-2.941c-0.018-0.924,0.46-1.815,1.437-2.675
		c0.975-0.856,1.866-1.295,2.671-1.312c1.179-0.024,2.401,0.675,3.663,2.092l-0.172,3.472c1.917-3.448,4.325-5.205,7.222-5.265
		c1.877-0.039,3.877,0.615,5.997,1.959c2.121,1.344,3.681,2.872,4.681,4.585c2.286,4.347,3.501,10.104,3.643,17.268L166.787,81.019z
		"/>
	<path fill="none" stroke="#FFFFFF" stroke-width="1.5" stroke-miterlimit="10" d="M166.787,81.019
		c-0.779,1.345-1.759,2.03-2.938,2.055c-0.913,0.019-2.426-0.529-4.541-1.641l-0.021-1.04c-0.025-1.271-0.036-3.149-0.031-5.636
		c0.003-2.485-0.005-4.306-0.028-5.462c-0.246-12.365-2.076-18.514-5.49-18.443c-0.961,0.02-2.038,0.852-3.233,2.493
		c-3.689,5.048-5.464,11.069-5.326,18.061c0.019,0.982,0.222,2.437,0.609,4.366c0.387,1.928,0.591,3.383,0.611,4.366
		c0.016,0.81-0.321,1.481-1.007,2.016c-0.688,0.534-1.433,0.81-2.238,0.827c-3.218,0.066-4.872-2.096-4.959-6.488l-0.36-18.116
		c-0.009-0.462,0.03-1.142,0.121-2.041c0.089-0.898,0.129-1.578,0.12-2.04c-0.013-0.693-0.128-1.702-0.341-3.028
		c-0.215-1.324-0.328-2.305-0.341-2.941c-0.018-0.924,0.46-1.815,1.437-2.675c0.975-0.856,1.866-1.295,2.671-1.312
		c1.179-0.024,2.401,0.675,3.663,2.092l-0.172,3.472c1.917-3.448,4.325-5.205,7.222-5.265c1.877-0.039,3.877,0.615,5.997,1.959
		c2.121,1.344,3.681,2.872,4.681,4.585c2.286,4.347,3.501,10.104,3.643,17.268L166.787,81.019z"/>
	<path fill="#F16624" d="M197.931,55.231c-0.08,1.448-0.378,3.997-0.895,7.649c-0.475,3.191-0.691,5.737-0.654,7.646
		c0.034,1.734,0.167,4.332,0.396,7.795c0.229,3.464,0.362,6.062,0.396,7.797c0.07,3.581-0.199,6.246-0.807,7.993
		c-0.708,2.211-2.094,4.018-4.159,5.419c-2.066,1.4-4.225,2.126-6.479,2.172c-2.361,0.048-5.298-0.585-8.813-1.902
		c-4.217-1.532-6.344-3.28-6.384-5.244c-0.051-2.543,1.024-3.836,3.224-3.882c1.018-0.021,1.722,0.282,2.111,0.911
		c0.72,1.141,1.203,1.824,1.449,2.051c0.247,0.225,1.124,0.482,2.632,0.77c1.508,0.286,2.558,0.425,3.148,0.412
		c4.828-0.099,7.178-3.413,7.049-9.943c-0.038-1.907-0.151-3.523-0.338-4.849c-2.266,2.185-5.007,3.311-8.225,3.376
		c-1.343,0.028-2.853-0.345-4.532-1.119c-1.679-0.776-2.958-1.704-3.838-2.784c-1.706-2.045-2.598-5.119-2.68-9.224
		c-0.098-4.91,0.842-10.335,2.817-16.272c2.433-7.275,5.499-10.953,9.201-11.028c2.253-0.046,4.421,1.036,6.505,3.249
		c1.544,2.107,3.088,4.185,4.632,6.234c0.441,0.569,1.122,0.037,2.042,0.479C196.869,53.494,197.603,54.951,197.931,55.231
		 M189.905,60.6c-0.018-0.867-3.368-10.077-6.478-10.013c-1.771,0.037-3.194,2.754-4.267,8.152
		c-0.777,4.121-1.136,7.685-1.076,10.689c0.113,5.664,1.537,8.465,4.273,8.409c2.576-0.052,4.569-2.348,5.982-6.886
		C189.45,67.459,189.973,64.01,189.905,60.6"/>
	<path fill="none" stroke="#FFFFFF" stroke-width="1.5" stroke-miterlimit="10" d="M197.931,55.231
		c-0.08,1.448-0.378,3.997-0.895,7.649c-0.475,3.191-0.691,5.737-0.654,7.646c0.034,1.734,0.167,4.332,0.396,7.795
		c0.229,3.464,0.362,6.062,0.396,7.797c0.07,3.581-0.199,6.246-0.807,7.993c-0.708,2.211-2.094,4.018-4.159,5.419
		c-2.066,1.4-4.225,2.126-6.479,2.172c-2.361,0.048-5.298-0.585-8.813-1.902c-4.217-1.532-6.344-3.28-6.384-5.244
		c-0.051-2.543,1.024-3.836,3.224-3.882c1.018-0.021,1.722,0.282,2.111,0.911c0.72,1.141,1.203,1.824,1.449,2.051
		c0.247,0.225,1.124,0.482,2.632,0.77c1.508,0.286,2.558,0.425,3.148,0.412c4.828-0.099,7.178-3.413,7.049-9.943
		c-0.038-1.907-0.151-3.523-0.338-4.849c-2.266,2.185-5.007,3.311-8.225,3.376c-1.343,0.028-2.853-0.345-4.532-1.119
		c-1.679-0.776-2.958-1.704-3.838-2.784c-1.706-2.045-2.598-5.119-2.68-9.224c-0.098-4.91,0.842-10.335,2.817-16.272
		c2.433-7.275,5.499-10.953,9.201-11.028c2.253-0.046,4.421,1.036,6.505,3.249c1.544,2.107,3.088,4.185,4.632,6.234
		c0.441,0.569,1.122,0.037,2.042,0.479C196.869,53.494,197.603,54.951,197.931,55.231z M189.905,60.6
		c-0.018-0.867-3.368-10.077-6.478-10.013c-1.771,0.037-3.194,2.754-4.267,8.152c-0.777,4.121-1.136,7.685-1.076,10.689
		c0.113,5.664,1.537,8.465,4.273,8.409c2.576-0.052,4.569-2.348,5.982-6.886C189.45,67.459,189.973,64.01,189.905,60.6z"/>
	<path fill="#F16624" d="M134.282,59.414c-0.021-1.041,0.164-2.519,0.556-4.434c0.392-1.917,0.577-3.395,0.556-4.435
		c-0.013-0.673-0.297-1.249-0.831-1.733c-0.066-1.167-0.928-2.043-2.597-2.629c-1.342-0.549-2.676-0.813-4.004-0.786
		c-1.489,0.031-2.223,0.567-2.202,1.606c0.005,0.291,0.011,0.58,0.017,0.867c-0.354,3.881-0.472,8.681-0.359,14.403
		c0.067,3.41,0.437,8.488,1.107,15.238c0.16,1.46,0.575,2.607,1.222,3.469c0.781,2.388,2.542,3.576,5.315,3.519
		c0.976-0.02,1.856-0.703,2.643-2.049c-0.69-2.355-1.047-4.082-1.068-5.181L134.282,59.414z"/>
	<path fill="none" stroke="#FFFFFF" stroke-width="1.5" stroke-miterlimit="10" d="M134.282,59.414
		c-0.021-1.041,0.164-2.519,0.556-4.434c0.392-1.917,0.577-3.395,0.556-4.435c-0.013-0.673-0.297-1.249-0.831-1.733
		c-0.066-1.167-0.928-2.043-2.597-2.629c-1.342-0.549-2.676-0.813-4.004-0.786c-1.489,0.031-2.223,0.567-2.202,1.606
		c0.005,0.291,0.011,0.58,0.017,0.867c-0.354,3.881-0.472,8.681-0.359,14.403c0.067,3.41,0.437,8.488,1.107,15.238
		c0.16,1.46,0.575,2.607,1.222,3.469c0.781,2.388,2.542,3.576,5.315,3.519c0.976-0.02,1.856-0.703,2.643-2.049
		c-0.69-2.355-1.047-4.082-1.068-5.181L134.282,59.414z"/>
</g>
</svg>
