<?xml version="1.0" encoding="utf-8"?>
<!-- Generator: Adobe Illustrator 16.0.0, SVG Export Plug-In . SVG Version: 6.00 Build 0)  -->
<!DOCTYPE svg PUBLIC "-//W3C//DTD SVG 1.1//EN" "http://www.w3.org/Graphics/SVG/1.1/DTD/svg11.dtd">
<svg version="1.1" id="Layer_1" xmlns="http://www.w3.org/2000/svg" xmlns:xlink="http://www.w3.org/1999/xlink" x="0px" y="0px"
	 width="350.473px" height="346.387px" viewBox="0 0 350.473 346.387" enable-background="new 0 0 350.473 346.387"
	 xml:space="preserve">
<g>
	<path fill-rule="evenodd" clip-rule="evenodd" fill="#90B03F" d="M0.392,171.76C0.39,121.812,1.051,71.846,0.012,21.92
		C-0.325,5.68,6.435,0.088,20.774,0.079C123.702,0.012,226.63-0.086,329.556,0.146c18.905,0.04,20.698,14.033,20.712,28.458
		c0.054,53.734,0.022,107.469,0.022,161.203c0,43.14-0.373,86.284,0.178,129.415c0.229,18.002-7.588,27.114-25.279,27.132
		c-101.39,0.084-202.782-0.005-304.172-0.098c-14.76-0.014-21.178-6.524-20.925-22.377C0.908,273.184,0.396,222.468,0.392,171.76z
		 M45.826,125.167c0.282,19.08,21.994,41.387,39.556,40.637c20.166-0.865,43.158-24.433,42.016-43.068
		c-1.25-20.381-20.834-37.176-43.247-37.082C59.514,85.76,45.458,100.252,45.826,125.167z M300.206,151.992
		c-1.563-11.602-10.479-21.269-28.815-20.9c-17.72,0.355-28.228,9.489-29.854,26.825c-1.422,15.161,16.406,32.457,31.487,32.191
		C288.629,189.828,300.597,175.715,300.206,151.992z M143.617,213.484c4.305,19.973,6.131,42.066,31.308,44.32
		c15.791,1.412,34.334-21.197,35.912-41.067C187.84,230.714,165.788,231.654,143.617,213.484z"/>
	<path fill-rule="evenodd" clip-rule="evenodd" fill="#FEFEFD" d="M45.826,125.167C45.458,100.252,59.514,85.76,84.15,85.653
		c22.413-0.094,41.997,16.701,43.247,37.082c1.143,18.636-21.85,42.203-42.016,43.068C67.82,166.554,46.108,144.247,45.826,125.167z
		"/>
	<path fill-rule="evenodd" clip-rule="evenodd" fill="#FEFEFD" d="M300.206,151.992c0.391,23.723-11.577,37.836-27.183,38.116
		c-15.081,0.266-32.909-17.03-31.487-32.191c1.627-17.336,12.135-26.47,29.854-26.825
		C289.728,130.724,298.644,140.391,300.206,151.992z"/>
	<path fill-rule="evenodd" clip-rule="evenodd" fill="#FDFDFC" d="M143.617,213.484c22.171,18.17,44.223,17.229,67.22,3.253
		c-1.578,19.87-20.121,42.479-35.912,41.067C149.748,255.551,147.922,233.457,143.617,213.484z"/>
</g>
</svg>
