<?xml version="1.0" encoding="utf-8"?>
<!-- Generator: Adobe Illustrator 16.0.0, SVG Export Plug-In . SVG Version: 6.00 Build 0)  -->
<!DOCTYPE svg PUBLIC "-//W3C//DTD SVG 1.1//EN" "http://www.w3.org/Graphics/SVG/1.1/DTD/svg11.dtd">
<svg version="1.1" id="Layer_1" xmlns="http://www.w3.org/2000/svg" xmlns:xlink="http://www.w3.org/1999/xlink" x="0px" y="0px"
	 width="921.568px" height="114.885px" viewBox="0 0 921.568 114.885" enable-background="new 0 0 921.568 114.885"
	 xml:space="preserve">
<g>
	<g>
		<path fill="#F26726" d="M19.901,64c0,0,475.595,0,634.127,0c273.173,0,267.54-64,267.54-64H19.901V64z"/>
		<g>
			<g>
				<path fill="#FFFFFF" d="M234.424,95.51c0,0-37.427,39.702-68.514-5.702c0,0-45.21,11.676-42.251-42.735
					c-18.078-7.584-5.442-116.082,74.671-89.283c6.283-11.082,54.962-40.868,68.521,6.197c0,0,57.152-9.132,44.456,33.59
					C351.566,39.563,300.932,121.58,234.424,95.51z"/>
				<path fill="#FFFFFF" d="M127.24,98.814c0,0-37.428,39.702-68.514-5.702c0,0-45.21,11.676-42.251-42.735
					c-18.078-7.584-5.442-116.082,74.671-89.283c6.282-11.082,54.962-40.869,68.521,6.197c0,0,51.618,1.553,38.923,44.274
					C238.85,53.553,193.748,124.885,127.24,98.814z"/>
				<path fill="#F26726" d="M234.107,77.695c0,0-37.427,39.701-68.514-5.701c0,0-45.21,11.674-42.252-42.735
					c-18.077-7.585-5.441-116.083,74.672-89.284c6.283-11.08,54.962-40.867,68.521,6.195c0,0,51.618,1.553,38.923,44.275
					C345.717,32.433,300.615,103.766,234.107,77.695z"/>
				<path fill="#F26726" d="M129.98,83.966c0,0-37.429,39.702-68.515-5.7c0,0-57.64-8.564-54.68-62.973
					c-21.165-2.242,6.987-95.847,87.101-69.048c6.281-11.079,54.961-40.867,68.521,6.196c0,0,51.617,1.553,38.922,44.275
					C241.589,38.704,196.487,110.037,129.98,83.966z"/>
			</g>
		</g>
	</g>
</g>
</svg>
