<?xml version="1.0" encoding="utf-8"?>
<!-- Generator: Adobe Illustrator 16.0.0, SVG Export Plug-In . SVG Version: 6.00 Build 0)  -->
<!DOCTYPE svg PUBLIC "-//W3C//DTD SVG 1.1//EN" "http://www.w3.org/Graphics/SVG/1.1/DTD/svg11.dtd">
<svg version="1.1" id="Layer_1" xmlns="http://www.w3.org/2000/svg" xmlns:xlink="http://www.w3.org/1999/xlink" x="0px" y="0px"
	 width="918.565px" height="113.149px" viewBox="0 0 918.565 113.149" enable-background="new 0 0 918.565 113.149"
	 xml:space="preserve">
<g>
	<g>
		<path fill="#F26726" d="M16.565,63c0,0,475.771,0,634.361,0C924.2,63,918.565-1,918.565-1h-902V63z"/>
		<path fill="#FFFFFF" d="M478.542,94.51c0,0-37.428,39.702-68.515-5.702c0,0-45.21,11.676-42.251-42.735
			c-18.078-7.584-5.441-116.082,74.672-89.283c6.283-11.082,54.961-40.868,68.521,6.197c0,0,57.152-9.132,44.456,33.59
			C595.685,38.563,545.05,120.58,478.542,94.51z"/>
		<path fill="#FFFFFF" d="M370.356,97.814c0,0-37.428,39.702-68.514-5.702c0,0-45.209,11.676-42.25-42.735
			c-18.078-7.585-5.443-116.082,74.67-89.283c6.283-11.082,54.963-40.869,68.521,6.197c0,0,51.619,1.553,38.924,44.274
			C481.966,52.553,436.864,123.885,370.356,97.814z"/>
		<path fill="#FFFFFF" d="M687.388,94.51c0,0-37.428,39.702-68.515-5.702c0,0-45.21,11.676-42.251-42.735
			c-18.078-7.584-5.441-116.082,74.672-89.283c6.283-11.082,54.961-40.868,68.521,6.197c0,0,57.152-9.132,44.456,33.59
			C804.53,38.563,753.896,120.58,687.388,94.51z"/>
		<path fill="#FFFFFF" d="M579.202,97.814c0,0-37.428,39.702-68.514-5.702c0,0-45.209,11.676-42.25-42.735
			c-18.078-7.585-5.443-116.082,74.67-89.283c6.283-11.082,54.963-40.869,68.521,6.197c0,0,51.619,1.553,38.924,44.274
			C690.812,52.553,645.71,123.885,579.202,97.814z"/>
		<g>
			<g>
				<path fill="#FFFFFF" d="M231.421,94.51c0,0-37.427,39.702-68.514-5.702c0,0-45.21,11.676-42.251-42.735
					c-18.078-7.584-5.442-116.082,74.671-89.283c6.283-11.082,54.962-40.868,68.521,6.197c0,0,57.152-9.132,44.456,33.59
					C348.563,38.563,297.929,120.58,231.421,94.51z"/>
				<path fill="#FFFFFF" d="M123.236,97.814c0,0-37.428,39.702-68.515-5.702c0,0-45.209,11.676-42.25-42.735
					C-5.606,41.792,7.029-66.705,87.143-39.906c6.282-11.082,54.962-40.869,68.521,6.197c0,0,51.618,1.553,38.923,44.274
					C234.846,52.553,189.744,123.885,123.236,97.814z"/>
				<path fill="#F26726" d="M231.104,76.695c0,0-37.427,39.701-68.514-5.701c0,0-45.21,11.674-42.252-42.735
					c-18.077-7.585-5.441-116.083,74.672-89.284c6.283-11.08,54.962-40.867,68.521,6.195c0,0,51.618,1.553,38.923,44.275
					C342.714,31.433,297.612,102.766,231.104,76.695z"/>
				<path fill="#F26726" d="M125.977,82.966c0,0-37.429,39.702-68.515-5.7c0,0-57.64-8.564-54.68-62.973
					c-21.165-2.242,6.987-95.847,87.101-69.048c6.281-11.08,54.962-40.867,68.521,6.196c0,0,51.618,1.553,38.923,44.275
					C237.585,37.704,192.483,109.037,125.977,82.966z"/>
			</g>
		</g>
		<path fill="#F26726" d="M478.226,76.695c0,0-37.428,39.701-68.514-5.701c0,0-45.211,11.674-42.252-42.735
			c-18.078-7.585-5.441-116.083,74.672-89.284c6.283-11.08,54.961-40.867,68.521,6.195c0,0,51.617,1.553,38.922,44.275
			C589.834,31.433,544.732,102.766,478.226,76.695z"/>
		<path fill="#F26726" d="M373.097,82.966c0,0-37.428,39.702-68.514-5.7c0,0-57.641-8.564-54.68-62.973
			c-21.166-2.242,6.986-95.847,87.1-69.048c6.281-11.08,54.962-40.867,68.521,6.196c0,0,51.617,1.553,38.922,44.275
			C484.706,37.704,439.604,109.037,373.097,82.966z"/>
		<path fill="#F26726" d="M687.071,76.695c0,0-37.428,39.701-68.514-5.701c0,0-45.211,11.674-42.252-42.735
			c-18.078-7.585-5.441-116.083,74.672-89.284c6.283-11.08,54.961-40.867,68.521,6.195c0,0,51.617,1.553,38.922,44.275
			C798.68,31.433,753.578,102.766,687.071,76.695z"/>
		<path fill="#F26726" d="M581.942,82.966c0,0-37.428,39.702-68.514-5.7c0,0-57.641-8.564-54.68-62.973
			c-21.166-2.242,6.986-95.847,87.1-69.048c6.281-11.08,54.962-40.867,68.521,6.196c0,0,51.617,1.553,38.922,44.275
			C693.552,37.704,648.45,109.037,581.942,82.966z"/>
	</g>
</g>
</svg>
