<?xml version="1.0" encoding="utf-8"?>
<!-- Generator: Adobe Illustrator 16.0.0, SVG Export Plug-In . SVG Version: 6.00 Build 0)  -->
<!DOCTYPE svg PUBLIC "-//W3C//DTD SVG 1.1//EN" "http://www.w3.org/Graphics/SVG/1.1/DTD/svg11.dtd">
<svg version="1.1" id="Layer_1" xmlns="http://www.w3.org/2000/svg" xmlns:xlink="http://www.w3.org/1999/xlink" x="0px" y="0px"
	 width="918.565px" height="113.149px" viewBox="0 0 918.565 113.149" enable-background="new 0 0 918.565 113.149"
	 xml:space="preserve">
<g>
	<g>
		<path fill="#03A8CE" d="M11.565,63c0,0,478.408,0,637.878,0C924.231,63,918.565-1,918.565-1h-907V63z"/>
		<g>
			<g>
				<g>
					<path fill="#F2F2F2" d="M304.095,93.775c0,0-37.428,39.701-68.516-5.703c0,0-45.209,11.676-42.25-42.734
						c-18.078-7.585-5.442-116.082,74.672-89.283c6.282-11.082,54.961-40.869,68.52,6.197c0,0,51.619,1.552,38.924,44.273
						C415.702,48.514,370.602,119.845,304.095,93.775z"/>
					<path fill="#F2F2F2" d="M121.995,97.08c0,0-37.428,39.701-68.514-5.703c0,0-45.21,11.676-42.251-42.734
						C-6.848,41.057,5.788-67.439,85.901-40.641c6.282-11.082,54.962-40.869,68.521,6.196c0,0,51.618,1.553,38.923,44.274
						C233.604,51.818,188.503,123.149,121.995,97.08z"/>
					<path fill="#F2F2F2" d="M573.303,88.996c0,0-37.429,39.701-68.515-5.703c0,0-45.21,11.676-42.252-42.734
						c-18.077-7.586-5.441-116.083,74.672-89.284c6.283-11.082,54.962-40.868,68.521,6.196c0,0,51.618,1.553,38.922,44.275
						C684.911,43.733,639.81,115.064,573.303,88.996z"/>
					<path fill="#F2F2F2" d="M387.199,92.3c0,0-37.428,39.702-68.515-5.702c0,0-45.209,11.676-42.25-42.736
						c-18.078-7.584-5.441-116.081,74.672-89.282c6.281-11.082,54.961-40.868,68.521,6.196c0,0,51.618,1.553,38.923,44.275
						C498.809,47.038,453.707,118.369,387.199,92.3z"/>
				</g>
				<g>
					<path fill="#1DC0E5" d="M305.019,76.695c0,0-37.427,39.701-68.514-5.701c0,0-45.21,11.674-42.252-42.735
						c-18.077-7.585-5.441-116.083,74.672-89.284c6.283-11.08,54.962-40.867,68.521,6.195c0,0,51.618,1.553,38.923,44.275
						C416.628,31.433,371.526,102.766,305.019,76.695z"/>
					<path fill="#1DC0E5" d="M129.98,82.966c0,0-37.429,39.702-68.515-5.7c0,0-57.64-8.564-54.68-62.973
						c-21.165-2.242,6.987-95.847,87.101-69.048c6.281-11.08,54.962-40.867,68.521,6.196c0,0,51.618,1.553,38.923,44.275
						C241.589,37.704,196.487,109.037,129.98,82.966z"/>
					<path fill="#1DC0E5" d="M574.228,71.915c0,0-37.428,39.702-68.515-5.701c0,0-45.21,11.674-42.251-42.735
						c-18.078-7.584-5.442-116.084,74.672-89.285c6.282-11.08,54.961-40.866,68.521,6.197c0,0,51.618,1.553,38.923,44.275
						C685.836,26.652,640.734,97.986,574.228,71.915z"/>
					<path fill="#1DC0E5" d="M390.18,78.186c0,0-37.429,39.702-68.515-5.699c0,0-57.639-8.564-54.68-62.974
						c-21.165-2.243,6.986-95.847,87.1-69.048c6.283-11.08,54.963-40.866,68.521,6.197c0,0,51.619,1.553,38.923,44.275
						C501.788,32.924,456.687,104.258,390.18,78.186z"/>
				</g>
			</g>
		</g>
		<rect x="-80.435" y="-121" fill="#FFFFFF" width="1060" height="121"/>
	</g>
</g>
</svg>
