<?xml version="1.0" encoding="utf-8"?>
<!-- Generator: Adobe Illustrator 16.0.0, SVG Export Plug-In . SVG Version: 6.00 Build 0)  -->
<!DOCTYPE svg PUBLIC "-//W3C//DTD SVG 1.1//EN" "http://www.w3.org/Graphics/SVG/1.1/DTD/svg11.dtd">
<svg version="1.1" id="Layer_1" xmlns="http://www.w3.org/2000/svg" xmlns:xlink="http://www.w3.org/1999/xlink" x="0px" y="0px"
	 width="903.264px" height="86.315px" viewBox="0 0 903.264 86.315" enable-background="new 0 0 903.264 86.315"
	 xml:space="preserve">
<g>
	<g>
		<path fill="#FFFFFF" d="M93.929,35.468c0,0,40.949-39.032,73.464,6.916c0,0,48.771-10.87,44.556,43.479
			c19.268,7.904,3.631,116.16-81.887,87.944c-6.957,10.968-59.799,39.886-73.463-7.412c0,0-55.398-2.468-40.949-44.959
			C-26.784,78.74,23.009,8.22,93.929,35.468z"/>
		<path fill="#FFFFFF" d="M203.583,49.879c0,0,40.949-39.031,73.463,6.916c0,0,48.771-10.87,44.557,43.479
			c19.268,7.904,3.632,116.161-81.887,87.944c-6.957,10.968-59.799,39.887-73.462-7.411c0,0-55.399-2.47-40.95-44.959
			C82.871,93.152,132.663,22.632,203.583,49.879z"/>
		<path fill="#FFFFFF" d="M366.27,15.466c0,0,40.948-39.031,73.464,6.916c0,0,48.77-10.87,44.555,43.479
			c19.269,7.904,3.632,116.161-81.887,87.944c-6.956,10.968-59.798,39.886-73.461-7.412c0,0-55.399-2.468-40.951-44.958
			C245.558,58.738,295.349-11.782,366.27,15.466z"/>
		<path fill="#FFFFFF" d="M475.924,35.468c0,0,40.947-39.032,73.463,6.916c0,0,48.771-10.87,44.557,43.479
			c19.268,7.904,3.631,116.16-81.887,87.944c-6.958,10.968-59.799,39.886-73.462-7.412c0,0-55.399-2.468-40.951-44.959
			C355.212,78.74,405.004,8.22,475.924,35.468z"/>
		<path fill="#FFFFFF" d="M675.829,35.468c0,0,40.947-39.032,73.464,6.916c0,0,48.77-10.87,44.554,43.479
			c19.27,7.904,3.632,116.16-81.885,87.944c-6.957,10.968-59.8,39.886-73.462-7.412c0,0-55.399-2.468-40.952-44.959
			C555.117,78.74,604.908,8.22,675.829,35.468z"/>
		<path fill="#FFFFFF" d="M785.483,35.468c0,0,40.947-39.032,73.464,6.916c0,0,48.771-10.87,44.555,43.479
			c19.269,7.904,3.632,116.16-81.886,87.944c-6.958,10.968-59.799,39.886-73.461-7.412c0,0-55.401-2.468-40.953-44.959
			C664.772,78.74,714.563,8.22,785.483,35.468z"/>
	</g>
	<g>
		<path fill="#1DC0E5" d="M93.929,53.285c0,0,40.949-39.031,73.464,6.916c0,0,48.771-10.87,44.556,43.479
			c19.268,7.904,3.631,116.161-81.887,87.944c-6.957,10.969-59.799,39.887-73.463-7.411c0,0-55.398-2.47-40.949-44.959
			C-26.784,96.558,23.009,26.037,93.929,53.285z"/>
		<path fill="#1DC0E5" d="M203.583,67.697c0,0,40.949-39.031,73.463,6.916c0,0,48.771-10.871,44.557,43.479
			c19.268,7.903,3.632,116.16-81.887,87.941c-6.957,10.969-59.799,39.887-73.462-7.41c0,0-55.399-2.47-40.95-44.958
			C82.871,110.97,132.663,40.449,203.583,67.697z"/>
		<path fill="#1DC0E5" d="M366.27,33.283c0,0,40.948-39.031,73.464,6.916c0,0,48.77-10.87,44.555,43.479
			c19.269,7.904,3.632,116.161-81.887,87.944c-6.956,10.968-59.798,39.887-73.461-7.411c0,0-55.399-2.47-40.951-44.959
			C245.558,76.556,295.349,6.035,366.27,33.283z"/>
		<path fill="#1DC0E5" d="M475.924,53.285c0,0,40.947-39.031,73.463,6.916c0,0,48.771-10.87,44.557,43.479
			c19.268,7.904,3.631,116.161-81.887,87.944c-6.958,10.969-59.799,39.887-73.462-7.411c0,0-55.399-2.47-40.951-44.959
			C355.212,96.558,405.004,26.037,475.924,53.285z"/>
		<path fill="#1DC0E5" d="M675.829,53.285c0,0,40.947-39.031,73.464,6.916c0,0,48.77-10.87,44.554,43.479
			c19.27,7.904,3.632,116.161-81.885,87.944c-6.957,10.969-59.8,39.887-73.462-7.411c0,0-55.399-2.47-40.952-44.959
			C555.117,96.558,604.908,26.037,675.829,53.285z"/>
		<path fill="#1DC0E5" d="M785.483,53.285c0,0,40.947-39.031,73.464,6.916c0,0,48.771-10.87,44.555,43.479
			c19.269,7.904,3.632,116.161-81.886,87.944c-6.958,10.969-59.799,39.887-73.461-7.411c0,0-55.401-2.47-40.953-44.959
			C664.772,96.558,714.563,26.037,785.483,53.285z"/>
	</g>
</g>
</svg>
