<?xml version="1.0" encoding="utf-8"?>
<!-- Generator: Adobe Illustrator 16.0.0, SVG Export Plug-In . SVG Version: 6.00 Build 0)  -->
<!DOCTYPE svg PUBLIC "-//W3C//DTD SVG 1.1//EN" "http://www.w3.org/Graphics/SVG/1.1/DTD/svg11.dtd">
<svg version="1.1" id="Layer_1" xmlns="http://www.w3.org/2000/svg" xmlns:xlink="http://www.w3.org/1999/xlink" x="0px" y="0px"
	 width="922.578px" height="114.885px" viewBox="0 0 922.578 114.885" enable-background="new 0 0 922.578 114.885"
	 xml:space="preserve">
<g>
	<g>
		<path fill="#90B13D" d="M19.569,64c0,0,476.456,0,635.164,0C928.208,64,922.569,0,922.569,0h-903V64z"/>
		<g>
			<g>
				<path fill="#BBC86F" d="M235.425,95.51c0,0-37.427,39.702-68.514-5.702c0,0-45.21,11.676-42.251-42.735
					c-18.078-7.584-5.442-116.082,74.671-89.283c6.283-11.082,54.962-40.868,68.521,6.197c0,0,57.152-9.132,44.456,33.59
					C352.567,39.563,301.933,121.58,235.425,95.51z"/>
				<path fill="#BBC86F" d="M127.24,98.814c0,0-37.428,39.702-68.515-5.702c0,0-45.209,11.676-42.25-42.735
					c-18.078-7.584-5.442-116.082,74.671-89.283c6.282-11.082,54.962-40.869,68.521,6.197c0,0,51.618,1.553,38.923,44.274
					C238.85,53.553,193.748,124.885,127.24,98.814z"/>
				<path fill="#90B13F" d="M235.108,77.695c0,0-37.427,39.701-68.514-5.701c0,0-45.21,11.674-42.252-42.735
					c-18.077-7.585-5.441-116.083,74.672-89.284c6.283-11.08,54.962-40.867,68.521,6.195c0,0,51.618,1.553,38.923,44.275
					C346.718,32.433,301.616,103.766,235.108,77.695z"/>
				<path fill="#90B13F" d="M129.98,83.966c0,0-37.429,39.702-68.515-5.7c0,0-57.64-8.564-54.68-62.973
					c-21.165-2.242,6.987-95.847,87.101-69.048c6.281-11.08,54.962-40.867,68.521,6.196c0,0,51.618,1.553,38.923,44.275
					C241.589,38.704,196.487,110.037,129.98,83.966z"/>
			</g>
		</g>
	</g>
</g>
</svg>
