<?xml version="1.0" encoding="utf-8"?>
<!-- Generator: Adobe Illustrator 16.0.0, SVG Export Plug-In . SVG Version: 6.00 Build 0)  -->
<!DOCTYPE svg PUBLIC "-//W3C//DTD SVG 1.1//EN" "http://www.w3.org/Graphics/SVG/1.1/DTD/svg11.dtd">
<svg version="1.1" id="Layer_1" xmlns="http://www.w3.org/2000/svg" xmlns:xlink="http://www.w3.org/1999/xlink" x="0px" y="0px"
	 width="490.357px" height="111px" viewBox="0 0 490.357 111" enable-background="new 0 0 490.357 111" xml:space="preserve">
<g>
	<text transform="matrix(1 0 0 1 64.7275 52.8457)" fill="#FFFFFF" font-family="'Bariol-Regular'" font-size="23">Home</text>
	<text transform="matrix(1 0 0 1 163.415 52.8457)" fill="#FFFFFF" font-family="'Bariol-Regular'" font-size="23">Features</text>
	<text transform="matrix(1 0 0 1 387.5723 52.8457)" fill="#FFFFFF" font-family="'Bariol-Regular'" font-size="23">Contact</text>
	<text transform="matrix(1 0 0 1 285.665 52.8457)" fill="#FFFFFF" font-family="'Bariol-Regular'" font-size="23">About</text>
</g>
<g>
	<g>
		<path fill="#F26726" d="M89.318-40.405c0,0,45.143-25.952,64.039,18.14c13.568-5.813,60.566,4.846,43.609,40.701
			c17.379,9.575,37.793,122.102-88.666,76.306c0,0-36.844,28.584-68.781-14.944c0,0-52.211-8.31-33.836-47.067
			C-12.158,22.148,11.014-87.782,89.318-40.405z"/>
		<path fill="#F26726" d="M315.554,68.082c0,0-22.546,46.938-63.069,21.266c-7.901,12.469-52.688,30.264-58.985-8.896
			C173.75,82.387,93.266,1.141,223.453-32.627c0,0,14.215-44.412,65.174-26.583c0,0,47.756-22.681,54.526,19.674
			C363.852-40.902,406.926,62.857,315.554,68.082z"/>
		<path fill="#F26726" d="M365.311-33.43c0,0,51.929-32.956,83.72,7.5c15.972-7.944,76.928-5.061,62.198,33.092
			c23.572,6.627,69.787,114.392-97.361,89.734c0,0-41.027,34.205-89.088-3.575c0,0-67.071,0.282-51.093-40.964
			C249.351,44.812,258.331-67.474,365.311-33.43z"/>
		<path fill="#F26726" d="M66.865,85.908c111.101-0.753,423.492,0,423.492,0V0.001c0,0-324.537-0.003-423.42,0
			C56.59,0.001,56.516,85.979,66.865,85.908z"/>
	</g>
</g>
</svg>
