<?xml version="1.0" encoding="utf-8"?>
<!-- Generator: Adobe Illustrator 16.0.0, SVG Export Plug-In . SVG Version: 6.00 Build 0)  -->
<!DOCTYPE svg PUBLIC "-//W3C//DTD SVG 1.1//EN" "http://www.w3.org/Graphics/SVG/1.1/DTD/svg11.dtd">
<svg version="1.1" id="Layer_1" xmlns="http://www.w3.org/2000/svg" xmlns:xlink="http://www.w3.org/1999/xlink" x="0px" y="0px"
	 width="913px" height="111px" viewBox="0 0 913 111" enable-background="new 0 0 913 111" xml:space="preserve">
<g>
	<text transform="matrix(1 0 0 1 487.3701 52.8457)" fill="#FFFFFF" font-family="'Bariol-Regular'" font-size="23">Home</text>
	<text transform="matrix(1 0 0 1 586.0576 52.8457)" fill="#FFFFFF" font-family="'Bariol-Regular'" font-size="23">Features</text>
	<text transform="matrix(1 0 0 1 810.2148 52.8457)" fill="#FFFFFF" font-family="'Bariol-Regular'" font-size="23">Contact</text>
	<text transform="matrix(1 0 0 1 708.3076 52.8457)" fill="#FFFFFF" font-family="'Bariol-Regular'" font-size="23">About</text>
</g>
<g>
	<g>
		<path fill="#F26726" d="M511.961-40.405c0,0,45.143-25.952,64.039,18.14c13.568-5.813,60.566,4.846,43.609,40.701
			c17.379,9.575,37.793,122.102-88.666,76.306c0,0-36.844,28.584-68.781-14.944c0,0-52.211-8.31-33.836-47.067
			C410.484,22.148,433.656-87.782,511.961-40.405z"/>
		<path fill="#F26726" d="M738.196,68.082c0,0-22.546,46.938-63.069,21.266c-7.901,12.469-52.688,30.264-58.985-8.896
			c-19.749,1.935-100.233-79.312,29.954-113.079c0,0,14.215-44.412,65.174-26.583c0,0,47.756-22.681,54.526,19.674
			C786.494-40.902,829.568,62.857,738.196,68.082z"/>
		<path fill="#F26726" d="M787.953-33.43c0,0,51.929-32.956,83.72,7.5c15.972-7.944,76.928-5.061,62.198,33.092
			c23.572,6.627,69.787,114.392-97.361,89.734c0,0-41.027,34.205-89.088-3.575c0,0-67.071,0.282-51.093-40.964
			C671.993,44.812,680.974-67.474,787.953-33.43z"/>
		<path fill="#F26726" d="M489.508,85.908c111.101-0.753,423.492,0,423.492,0V0.001c0,0-324.537-0.003-423.42,0
			C479.232,0.001,479.158,85.979,489.508,85.908z"/>
	</g>
</g>
</svg>
