<?xml version="1.0" encoding="utf-8"?>
<!-- Generator: Adobe Illustrator 16.0.0, SVG Export Plug-In . SVG Version: 6.00 Build 0)  -->
<!DOCTYPE svg PUBLIC "-//W3C//DTD SVG 1.1//EN" "http://www.w3.org/Graphics/SVG/1.1/DTD/svg11.dtd">
<svg version="1.1" id="Layer_1" xmlns="http://www.w3.org/2000/svg" xmlns:xlink="http://www.w3.org/1999/xlink" x="0px" y="0px"
	 width="911px" height="223.862px" viewBox="0 0 911 223.862" enable-background="new 0 0 911 223.862" xml:space="preserve">
<g>
	<g>
		<g>
			<path fill="#FFFFFF" d="M94.648,35.466c0,0,41.262-39.031,74.025,6.918c0,0,49.145-10.871,44.897,43.479
				c19.416,7.904,3.659,116.16-82.514,87.943c-7.012,10.969-60.257,39.887-74.025-7.412c0,0-55.824-2.469-41.264-44.959
				C-26.988,78.739,23.185,8.22,94.648,35.466z"/>
			<path fill="#FFFFFF" d="M205.142,49.878c0,0,41.263-39.031,74.027,6.916c0,0,49.145-10.869,44.897,43.479
				c19.415,7.904,3.66,116.162-82.513,87.945c-7.013,10.967-60.259,39.885-74.026-7.412c0,0-55.825-2.469-41.265-44.959
				C83.505,93.151,133.68,22.632,205.142,49.878z"/>
			<path fill="#FFFFFF" d="M369.075,15.466c0,0,41.263-39.031,74.027,6.916c0,0,49.143-10.871,44.896,43.479
				c19.416,7.904,3.66,116.16-82.513,87.943c-7.012,10.969-60.257,39.887-74.025-7.412c0,0-55.823-2.469-41.265-44.957
				C247.438,58.737,297.612-11.782,369.075,15.466z"/>
			<path fill="#FFFFFF" d="M479.57,35.466c0,0,41.261-39.031,74.026,6.918c0,0,49.144-10.871,44.896,43.479
				c19.416,7.904,3.658,116.16-82.514,87.943c-7.012,10.969-60.258,39.887-74.025-7.412c0,0-55.823-2.469-41.265-44.959
				C357.934,78.739,408.105,8.22,479.57,35.466z"/>
			<path fill="#FFFFFF" d="M681.006,35.466c0,0,41.263-39.031,74.027,6.918c0,0,49.144-10.871,44.896,43.479
				c19.417,7.904,3.658,116.16-82.513,87.943c-7.011,10.969-60.258,39.887-74.024-7.412c0,0-55.824-2.469-41.266-44.959
				C559.37,78.739,609.543,8.22,681.006,35.466z"/>
			<path fill="#FFFFFF" d="M791.501,35.466c0,0,41.26-39.031,74.025,6.918c0,0,49.145-10.871,44.896,43.479
				c19.417,7.904,3.659,116.16-82.513,87.943c-7.011,10.969-60.257,39.887-74.024-7.412c0,0-55.825-2.469-41.266-44.959
				C669.864,78.739,720.036,8.22,791.501,35.466z"/>
		</g>
		<g>
			<path fill="#F26726" d="M94.648,53.284c0,0,41.262-39.031,74.025,6.916c0,0,49.145-10.869,44.897,43.479
				c19.416,7.904,3.659,116.162-82.514,87.945c-7.012,10.967-60.257,39.885-74.025-7.412c0,0-55.824-2.469-41.264-44.959
				C-26.988,96.558,23.185,26.036,94.648,53.284z"/>
			<path fill="#F26726" d="M205.142,67.696c0,0,41.263-39.031,74.027,6.916c0,0,49.145-10.871,44.897,43.479
				c19.415,7.904,3.66,116.162-82.513,87.943c-7.013,10.969-60.259,39.887-74.026-7.41c0,0-55.825-2.471-41.265-44.959
				C83.505,110.97,133.68,40.448,205.142,67.696z"/>
			<path fill="#F26726" d="M369.075,33.282c0,0,41.263-39.031,74.027,6.916c0,0,49.143-10.869,44.896,43.479
				c19.416,7.904,3.66,116.162-82.513,87.945c-7.012,10.967-60.257,39.885-74.025-7.412c0,0-55.823-2.469-41.265-44.959
				C247.438,76.556,297.612,6.034,369.075,33.282z"/>
			<path fill="#F26726" d="M479.57,53.284c0,0,41.261-39.031,74.026,6.916c0,0,49.144-10.869,44.896,43.479
				c19.416,7.904,3.658,116.162-82.514,87.945c-7.012,10.967-60.258,39.885-74.025-7.412c0,0-55.823-2.469-41.265-44.959
				C357.934,96.558,408.105,26.036,479.57,53.284z"/>
			<path fill="#F26726" d="M681.006,53.284c0,0,41.263-39.031,74.027,6.916c0,0,49.144-10.869,44.896,43.479
				c19.417,7.904,3.658,116.162-82.513,87.945c-7.011,10.967-60.258,39.885-74.024-7.412c0,0-55.824-2.469-41.266-44.959
				C559.37,96.558,609.543,26.036,681.006,53.284z"/>
			<path fill="#F26726" d="M791.501,53.284c0,0,41.26-39.031,74.025,6.916c0,0,49.145-10.869,44.896,43.479
				c19.417,7.904,3.659,116.162-82.513,87.945c-7.011,10.967-60.257,39.885-74.024-7.412c0,0-55.825-2.469-41.266-44.959
				C669.864,96.558,720.036,26.036,791.501,53.284z"/>
		</g>
	</g>
	<rect y="103.862" fill="#F26726" width="911" height="120"/>
</g>
</svg>
